<?xml version="1.0" standalone="no"?>
<!DOCTYPE svg PUBLIC "-//W3C//DTD SVG 20010904//EN"
 "http://www.w3.org/TR/2001/REC-SVG-20010904/DTD/svg10.dtd">
<svg version="1.0" xmlns="http://www.w3.org/2000/svg"
 width="700.000000pt" height="700.000000pt" viewBox="0 0 700.000000 700.000000"
 preserveAspectRatio="xMidYMid meet">
<metadata>
Created by potrace 1.14, written by Peter Selinger 2001-2017
</metadata>
<g transform="translate(0.000000,700.000000) scale(0.100000,-0.100000)"
fill="#000000" stroke="none">
<path d="M1768 6925 c-2 -1 -32 -5 -68 -8 -36 -4 -74 -8 -85 -11 -162 -36
-290 -80 -392 -137 -117 -65 -96 -51 -198 -132 -134 -106 -216 -195 -300 -326
-72 -112 -149 -284 -171 -386 -1 -5 -7 -32 -14 -60 -18 -80 -24 -142 -24 -275
-1 -137 7 -213 31 -305 14 -54 16 -277 18 -2075 1 -1108 5 -2035 9 -2060 30
-182 89 -331 191 -485 173 -259 448 -439 758 -495 108 -20 299 -25 377 -10 25
4 59 11 75 14 49 8 67 13 135 36 350 117 638 410 744 760 49 161 54 215 55
659 1 228 3 416 5 418 1 2 45 -51 97 -118 52 -66 104 -132 116 -147 11 -15 95
-121 185 -237 615 -788 812 -1036 854 -1081 356 -369 893 -501 1381 -339 219
73 375 173 550 351 248 253 377 586 364 939 -2 44 -4 1046 -6 2226 -2 1181 -5
2177 -9 2215 -28 341 -207 653 -493 858 -126 90 -280 155 -457 192 -109 23
-275 23 -436 0 -84 -12 -214 -58 -320 -112 -304 -156 -524 -439 -605 -779 -25
-104 -31 -230 -30 -670 l0 -471 -21 26 c-18 21 -397 507 -488 625 -17 22 -33
42 -36 45 -5 4 -34 42 -82 105 -13 17 -148 189 -161 205 -7 8 -106 137 -221
285 -300 387 -425 506 -653 621 -70 35 -211 88 -263 99 -8 2 -35 8 -60 14 -68
15 -144 23 -252 26 -54 1 -99 1 -100 0z"/>
</g>
</svg>
