<?xml version="1.0" standalone="no"?>
<!DOCTYPE svg PUBLIC "-//W3C//DTD SVG 20010904//EN"
 "http://www.w3.org/TR/2001/REC-SVG-20010904/DTD/svg10.dtd">
<svg version="1.0" xmlns="http://www.w3.org/2000/svg"
 width="260.000000pt" height="260.000000pt" viewBox="0 0 260.000000 260.000000"
 preserveAspectRatio="xMidYMid meet">
<metadata>
Created by potrace 1.14, written by Peter Selinger 2001-2017
</metadata>
<g transform="translate(0.000000,260.000000) scale(0.100000,-0.100000)"
fill="#000000" stroke="none">
<path d="M1160 2573 c-192 -31 -307 -66 -441 -134 -347 -177 -594 -502 -674
-889 -17 -78 -31 -270 -21 -270 9 0 288 281 324 327 18 23 51 77 73 120 89
170 232 328 362 402 20 11 52 29 70 39 59 33 162 70 243 87 433 90 869 -118
1075 -513 l33 -63 -330 -330 c-181 -182 -341 -337 -356 -345 -37 -19 -98 -18
-128 3 -13 9 -89 81 -167 160 -79 79 -149 143 -157 143 -7 0 -57 -43 -110 -96
-80 -80 -94 -99 -86 -114 5 -10 72 -80 147 -155 148 -147 214 -192 317 -219
105 -27 246 -12 346 36 57 28 122 89 483 447 274 273 377 382 377 398 0 39
-57 191 -108 287 -180 343 -496 580 -882 662 -71 15 -333 27 -390 17z"/>
<path d="M961 1884 c-40 -13 -94 -39 -119 -56 -64 -44 -792 -777 -792 -797 0
-41 54 -195 104 -296 178 -359 499 -606 898 -691 90 -19 349 -25 443 -10 530
85 951 487 1060 1016 17 80 31 270 21 270 -10 0 -299 -292 -329 -332 -14 -18
-44 -69 -68 -113 -40 -77 -86 -148 -119 -188 -259 -314 -672 -437 -1059 -316
-245 77 -455 258 -576 495 -19 38 -35 75 -35 81 0 20 648 663 683 678 35 15
82 10 116 -12 13 -8 93 -85 177 -169 85 -85 161 -154 169 -154 15 0 205 186
205 200 0 4 -72 79 -159 167 -167 167 -219 204 -330 237 -84 24 -201 21 -290
-10z"/>
</g>
</svg>
