<?xml version="1.0" standalone="no"?>
<!DOCTYPE svg PUBLIC "-//W3C//DTD SVG 20010904//EN"
 "http://www.w3.org/TR/2001/REC-SVG-20010904/DTD/svg10.dtd">
<svg version="1.0" xmlns="http://www.w3.org/2000/svg"
 width="260.000000pt" height="260.000000pt" viewBox="0 0 260.000000 260.000000"
 preserveAspectRatio="xMidYMid meet">
<metadata>
Created by potrace 1.14, written by Peter Selinger 2001-2017
</metadata>
<g transform="translate(0.000000,260.000000) scale(0.100000,-0.100000)"
fill="#000000" stroke="none">
<path d="M1158 2585 c-2 -2 -23 -6 -48 -10 -189 -27 -383 -104 -550 -219 -79
-54 -228 -195 -276 -261 -16 -22 -31 -42 -34 -45 -14 -13 -72 -113 -108 -185
-46 -92 -85 -208 -107 -314 -17 -80 -32 -271 -22 -271 12 0 294 286 332 335
20 27 50 76 67 109 101 202 261 364 453 458 321 157 697 130 997 -73 116 -79
243 -224 311 -355 l37 -72 -341 -341 c-188 -188 -351 -344 -363 -347 -83 -21
-107 -7 -279 166 -82 83 -155 150 -163 150 -17 0 -204 -186 -204 -203 0 -8 69
-81 153 -164 167 -164 223 -201 347 -226 130 -27 270 1 378 75 24 17 217 203
428 414 280 279 384 390 384 406 0 33 -55 181 -101 272 -61 121 -135 222 -239
326 -249 249 -563 378 -921 378 -70 0 -129 -1 -131 -3z"/>
<path d="M1014 1905 c-138 -29 -155 -43 -582 -468 l-393 -392 5 -36 c17 -110
108 -315 198 -446 67 -99 221 -253 318 -319 124 -85 262 -150 400 -188 53 -15
69 -18 175 -36 61 -10 271 -10 328 0 23 5 60 10 82 14 87 12 252 69 355 124
113 60 212 134 310 232 229 228 356 512 376 835 l7 108 -149 -149 c-175 -175
-207 -213 -258 -314 -177 -344 -515 -556 -886 -553 -381 2 -717 213 -886 556
l-39 77 330 331 c194 194 344 337 364 346 22 10 47 12 74 7 36 -6 60 -26 209
-175 93 -93 175 -169 183 -169 17 0 205 186 205 203 0 7 -73 84 -162 172 -168
165 -229 209 -328 235 -65 18 -166 20 -236 5z"/>
</g>
</svg>
