<svg width="48" height="48" viewBox="0 0 48 48" fill="none" xmlns="http://www.w3.org/2000/svg">
<g clip-path="url(#clip0_1127_373)">
<g clip-path="url(#clip1_1127_373)">
<path d="M47.6308 23.454V24.0014C47.6308 37.0461 37.0548 47.6304 23.9992 47.6304C14.7633 47.6304 6.76254 42.3295 2.87275 34.6033C1.95601 32.7684 1.2589 30.7935 0.843506 28.7199L5.9779 23.5861L14.1633 15.392C17.7618 11.7938 23.5933 11.7938 27.1839 15.392L31.8774 20.085C32.1066 20.3062 32.1066 20.6754 31.8774 20.8966L28.7373 24.046C28.5081 24.2672 28.1468 24.2672 27.9176 24.046L22.3869 18.5063C21.4431 17.5706 19.9168 17.5706 18.973 18.5063L7.11746 30.3606C8.00873 32.7334 9.4109 34.9025 11.2539 36.7469C14.6503 40.1509 19.1656 42.0208 23.9642 42.0303C28.7007 42.0399 33.2796 40.17 36.6569 36.844C38.2182 35.3098 39.4628 33.5275 40.3621 31.5955C40.8905 30.4752 41.6242 29.4615 42.4964 28.5783L47.6308 23.454Z" fill="#378CE1"/>
<path d="M24.0008 5.96766C19.1847 5.96766 14.6552 7.84392 11.2508 11.2495L11.2524 11.2511C9.74199 12.7613 8.53399 14.4912 7.65545 16.369C7.12546 17.5037 6.39015 18.5301 5.50524 19.4149L0.375629 24.544C0.372446 24.3626 0.369263 24.1812 0.369263 23.9998C0.369263 10.9487 10.95 0.369141 24.0024 0.369141C33.017 0.369141 40.8539 5.41704 44.8392 12.8409C45.7989 14.6296 46.5358 16.5584 47.0117 18.5874L42.0285 23.5701L33.4132 32.1875C29.8195 35.7825 23.9911 35.7825 20.3958 32.1875L16.1224 27.9146C15.898 27.6902 15.898 27.3258 16.1224 27.1014L19.269 23.9552C19.4934 23.7308 19.8579 23.7308 20.0823 23.9552L25.1976 29.07C26.1398 30.0121 27.6661 30.0121 28.6083 29.07L40.6438 17.0342C39.7494 14.8986 38.4379 12.9364 36.7509 11.2495C33.3449 7.84233 28.8169 5.96766 24.0008 5.96766Z" fill="#378CE1"/>
</g>
</g>
<defs>
<clipPath id="clip0_1127_373">
<rect width="48" height="48" fill="white"/>
</clipPath>
<clipPath id="clip1_1127_373">
<rect width="47.2615" height="47.2596" fill="white" transform="translate(0.369263 0.369141)"/>
</clipPath>
</defs>
</svg>
