<svg width="32" height="32" viewBox="0 0 32 32" fill="none" xmlns="http://www.w3.org/2000/svg">
<g clip-path="url(#clip0_36_10)">
<path d="M30.3152 9.47283C30.315 8.94006 30.2011 8.46929 29.9706 8.06536C29.7443 7.66793 29.4053 7.33492 28.9507 7.07163C25.1976 4.90758 21.4408 2.75015 17.689 0.583893C16.6775 -5.49652e-05 15.6968 0.021344 14.6928 0.613675C13.1989 1.49456 5.7198 5.77953 3.49111 7.07042C2.57327 7.60186 2.12665 8.41502 2.12643 9.47184C2.125 13.8239 2.12643 18.1759 2.125 22.5279C2.125 23.049 2.23431 23.5107 2.45459 23.9086C2.68104 24.318 3.02475 24.6601 3.4899 24.9294C5.7187 26.2202 13.1988 30.5049 14.6923 31.3861C15.6968 31.9788 16.6775 31.9999 17.6893 31.4159C21.4413 29.2495 25.1982 27.0921 28.9519 24.928C29.417 24.6589 29.7607 24.3165 29.9872 23.9075C30.2071 23.5095 30.3167 23.0479 30.3167 22.5267C30.3167 22.5267 30.3167 13.825 30.3152 9.47283Z" fill="#A179DC"/>
<path d="M16.264 15.9576L2.45459 23.9087C2.68104 24.3181 3.02475 24.6602 3.4899 24.9295C5.7187 26.2204 13.1988 30.505 14.6923 31.3862C15.6968 31.9789 16.6775 32 17.6893 31.416C21.4413 29.2496 25.1982 27.0922 28.9519 24.9281C29.417 24.659 29.7607 24.3166 29.9872 23.9076L16.264 15.9576Z" fill="#280068"/>
<path d="M30.3149 9.47291C30.3147 8.94014 30.2008 8.46936 29.9703 8.06543L16.2637 15.9577L29.9869 23.9076C30.2068 23.5096 30.3161 23.048 30.3164 22.5268C30.3164 22.5268 30.3164 13.8251 30.3149 9.47291Z" fill="#390091"/>
<path d="M24.3938 12.9852V14.4715H25.88V12.9852H26.6231V14.4715H28.1094V15.2146H26.6231V16.7007H28.1094V17.4438H26.6231V18.93H25.88V17.4438H24.3938V18.93H23.6507V17.4438H22.1646V16.7007H23.6507V15.2146H22.1646V14.4715H23.6507V12.9852H24.3938ZM25.88 15.2145H24.3938V16.7007H25.88V15.2145Z" fill="white"/>
<path d="M16.2949 5.52111C20.1714 5.52111 23.5558 7.62636 25.3687 10.7557L25.351 10.7256L20.79 13.3517C19.8914 11.8303 18.2442 10.8034 16.3543 10.7823L16.2948 10.7819C13.4131 10.7819 11.0769 13.1182 11.0769 15.9999C11.0759 16.9081 11.3132 17.8008 11.765 18.5887C12.6645 20.1589 14.3553 21.2179 16.2949 21.2179C18.2465 21.2179 19.9469 20.1454 20.8417 18.5585L20.82 18.5965L25.3741 21.2348C23.5811 24.3376 20.243 26.4364 16.4116 26.4782L16.2949 26.4788C12.4061 26.4788 9.01208 24.3605 7.20376 21.2147C6.321 19.6789 5.81592 17.8985 5.81592 15.9999C5.81592 10.2127 10.5074 5.521 16.2948 5.521L16.2949 5.52111Z" fill="white"/>
</g>
<defs>
<clipPath id="clip0_36_10">
<rect width="28.4416" height="32" fill="white" transform="translate(2)"/>
</clipPath>
</defs>
</svg>
