<svg width="32" height="32" viewBox="0 0 32 32" fill="none" xmlns="http://www.w3.org/2000/svg">
<path d="M26.5458 6.87657C24.6691 6.00695 22.6705 5.36617 20.565 5C20.3057 5.4577 20.0005 6.08322 19.8022 6.5867C17.5747 6.25105 15.3624 6.25105 13.1807 6.5867C12.9671 6.08322 12.662 5.4577 12.4026 5C10.2972 5.36617 8.29855 6.00695 6.42198 6.87657C2.63828 12.5826 1.61608 18.1514 2.11955 23.6286C4.63693 25.5052 7.06275 26.6343 9.45808 27.3818C10.0531 26.5733 10.5718 25.7035 11.0295 24.8034C10.1599 24.483 9.33603 24.0711 8.55793 23.5981C8.77153 23.4455 8.96985 23.2777 9.1682 23.1251C13.9436 25.3525 19.1156 25.3525 23.83 23.1251C24.0283 23.293 24.2266 23.4455 24.4402 23.5981C23.6621 24.0711 22.823 24.4677 21.9686 24.8034C22.4263 25.7035 22.9451 26.5733 23.5401 27.3818C25.9355 26.6343 28.3765 25.5052 30.8785 23.6286C31.4735 17.2665 29.8565 11.7588 26.5763 6.87657H26.5458ZM11.6703 20.2721C10.2362 20.2721 9.0614 18.9447 9.0614 17.3123C9.0614 15.6798 10.2057 14.3525 11.6703 14.3525C13.135 14.3525 14.2945 15.6798 14.2792 17.3123C14.2792 18.9295 13.135 20.2721 11.6703 20.2721ZM21.2973 20.2721C19.8632 20.2721 18.6884 18.9447 18.6884 17.3123C18.6884 15.6798 19.8327 14.3525 21.2973 14.3525C22.762 14.3525 23.9215 15.6798 23.9063 17.3123C23.9063 18.9295 22.762 20.2721 21.2973 20.2721Z" fill="white"/>
</svg>
