<svg width="42" height="42" viewBox="0 0 42 42" fill="none" xmlns="http://www.w3.org/2000/svg">
<path d="M34.8413 9.0255C32.3782 7.88412 29.755 7.0431 26.9916 6.5625C26.6512 7.16323 26.2507 7.98423 25.9904 8.64504C23.0668 8.2045 20.1632 8.2045 17.2997 8.64504C17.0194 7.98423 16.6189 7.16323 16.2784 6.5625C13.5151 7.0431 10.8918 7.88412 8.42884 9.0255C3.46274 16.5147 2.1211 23.8237 2.78191 31.0125C6.08597 33.4756 9.26986 34.9575 12.4137 35.9385C13.1947 34.8774 13.8755 33.7358 14.4763 32.5544C13.3348 32.1339 12.2535 31.5933 11.2323 30.9725C11.5126 30.7723 11.7729 30.552 12.0333 30.3517C18.3009 33.2752 25.0892 33.2752 31.2768 30.3517C31.5371 30.572 31.7974 30.7723 32.0778 30.9725C31.0565 31.5933 29.9552 32.1139 28.8338 32.5544C29.4346 33.7358 30.1154 34.8774 30.8964 35.9385C34.0403 34.9575 37.2442 33.4756 40.528 31.0125C41.309 22.6623 39.1867 15.4334 34.8813 9.0255H34.8413ZM15.3173 26.6071C13.435 26.6071 11.8931 24.865 11.8931 22.7224C11.8931 20.5797 13.3949 18.8376 15.3173 18.8376C17.2396 18.8376 18.7615 20.5797 18.7415 22.7224C18.7415 24.845 17.2396 26.6071 15.3173 26.6071ZM27.9527 26.6071C26.0705 26.6071 24.5286 24.865 24.5286 22.7224C24.5286 20.5797 26.0304 18.8376 27.9527 18.8376C29.8751 18.8376 31.397 20.5797 31.377 22.7224C31.377 24.845 29.8751 26.6071 27.9527 26.6071Z" fill="white"/>
</svg>
