<svg width="32" height="32" viewBox="0 0 32 32" fill="none" xmlns="http://www.w3.org/2000/svg">
<path d="M16.3544 2C8.42773 2 2 8.42654 2 16.3544C2 22.6966 6.11298 28.0771 11.8164 29.9753C12.5338 30.1082 12.7972 29.6639 12.7972 29.2847C12.7972 28.9424 12.7839 27.8118 12.7777 26.6123C8.78428 27.4804 7.94162 24.9186 7.94162 24.9186C7.28865 23.2595 6.34782 22.8183 6.34782 22.8183C5.04545 21.9274 6.44599 21.9457 6.44599 21.9457C7.88745 22.0469 8.64641 23.4249 8.64641 23.4249C9.92669 25.6194 12.0044 24.9849 12.8236 24.6182C12.9524 23.6904 13.3244 23.0572 13.7349 22.6987C10.5466 22.3357 7.19501 21.1049 7.19501 15.6047C7.19501 14.0375 7.75573 12.757 8.674 11.7518C8.52496 11.3902 8.03361 9.93025 8.81305 7.95304C8.81305 7.95304 10.0184 7.56725 12.7615 9.42442C13.9065 9.10638 15.1345 8.94689 16.3544 8.9414C17.5743 8.94689 18.8032 9.10638 19.9504 9.42442C22.6902 7.56725 23.8939 7.95304 23.8939 7.95304C24.6752 9.93025 24.1836 11.3902 24.0346 11.7518C24.955 12.757 25.5119 14.0375 25.5119 15.6047C25.5119 21.118 22.1539 22.3319 18.9575 22.6873C19.4724 23.1328 19.9311 24.0063 19.9311 25.3456C19.9311 27.2661 19.9145 28.812 19.9145 29.2847C19.9145 29.6667 20.1729 30.1145 20.9005 29.9734C26.6008 28.0733 30.7086 22.6944 30.7086 16.3544C30.7086 8.42654 24.2818 2 16.3544 2ZM7.37618 22.4482C7.34457 22.5195 7.23239 22.5409 7.13016 22.4919C7.02606 22.4451 6.96759 22.3479 7.00135 22.2763C7.03224 22.2029 7.14467 22.1824 7.24856 22.2316C7.3529 22.2784 7.41232 22.3766 7.37618 22.4482ZM8.08226 23.0782C8.01383 23.1417 7.87999 23.1122 7.78918 23.0119C7.69529 22.9118 7.67772 22.778 7.74712 22.7136C7.8177 22.6501 7.94748 22.6798 8.04163 22.7799C8.13553 22.8811 8.15381 23.014 8.08226 23.0782ZM8.56665 23.8843C8.47872 23.9454 8.3349 23.8881 8.24602 23.7604C8.15806 23.6328 8.15806 23.4797 8.24789 23.4184C8.33705 23.3571 8.47872 23.4122 8.56881 23.5389C8.65652 23.6687 8.65652 23.8218 8.56665 23.8843ZM9.38588 24.8178C9.30721 24.9046 9.13964 24.8813 9.01697 24.763C8.89147 24.6472 8.85652 24.4829 8.93543 24.3962C9.01507 24.3092 9.18361 24.3337 9.30721 24.4511C9.43175 24.5666 9.46979 24.7321 9.38588 24.8178ZM10.4446 25.133C10.4099 25.2454 10.2485 25.2966 10.086 25.2488C9.9236 25.1996 9.81735 25.0679 9.85015 24.9543C9.88391 24.8411 10.046 24.7879 10.2098 24.839C10.3719 24.888 10.4784 25.0187 10.4446 25.133ZM11.6496 25.2667C11.6536 25.3851 11.5157 25.4833 11.3451 25.4854C11.1734 25.4892 11.0346 25.3934 11.0327 25.2769C11.0327 25.1574 11.1675 25.0602 11.3391 25.0573C11.5098 25.054 11.6496 25.1491 11.6496 25.2667ZM12.8333 25.2213C12.8537 25.3368 12.7351 25.4555 12.5656 25.4871C12.399 25.5175 12.2447 25.4462 12.2235 25.3316C12.2028 25.2132 12.3236 25.0946 12.49 25.064C12.6597 25.0345 12.8116 25.1039 12.8333 25.2213Z" fill="white"/>
</svg>
