<svg width="32" height="32" viewBox="0 0 32 32" fill="none" xmlns="http://www.w3.org/2000/svg">
<path d="M16.5001 5C10.1496 5 5 10.1486 5 16.5001C5 21.5811 8.29513 25.8918 12.8645 27.4125C13.4392 27.519 13.6502 27.163 13.6502 26.8592C13.6502 26.585 13.6395 25.6793 13.6346 24.7182C10.4352 25.4138 9.76015 23.3613 9.76015 23.3613C9.23702 22.0321 8.48328 21.6786 8.48328 21.6786C7.43988 20.9649 8.56192 20.9795 8.56192 20.9795C9.71675 21.0607 10.3248 22.1646 10.3248 22.1646C11.3505 23.9228 13.0151 23.4145 13.6713 23.1206C13.7746 22.3773 14.0726 21.87 14.4015 21.5828C11.8471 21.292 9.162 20.306 9.162 15.8995C9.162 14.6439 9.61123 13.618 10.3469 12.8127C10.2275 12.523 9.83385 11.3534 10.4583 9.7693C10.4583 9.7693 11.424 9.46023 13.6216 10.9481C14.539 10.6933 15.5228 10.5655 16.5001 10.5611C17.4774 10.5655 18.462 10.6933 19.381 10.9481C21.576 9.46023 22.5404 9.7693 22.5404 9.7693C23.1663 11.3534 22.7725 12.523 22.6531 12.8127C23.3905 13.618 23.8367 14.6439 23.8367 15.8995C23.8367 20.3165 21.1464 21.289 18.5856 21.5737C18.9981 21.9306 19.3656 22.6304 19.3656 23.7034C19.3656 25.242 19.3523 26.4805 19.3523 26.8592C19.3523 27.1652 19.5593 27.524 20.1422 27.411C24.7091 25.8887 28 21.5794 28 16.5001C28 10.1486 22.8511 5 16.5001 5ZM9.30715 21.3821C9.28182 21.4393 9.19195 21.4564 9.11005 21.4172C9.02665 21.3797 8.9798 21.3018 9.00685 21.2444C9.0316 21.1856 9.12167 21.1692 9.2049 21.2087C9.2885 21.2462 9.3361 21.3248 9.30715 21.3821ZM9.87282 21.8869C9.818 21.9377 9.71078 21.9141 9.63803 21.8337C9.5628 21.7536 9.54873 21.6463 9.60433 21.5947C9.66088 21.5439 9.76485 21.5677 9.84027 21.6479C9.9155 21.729 9.93015 21.8355 9.87282 21.8869ZM10.2609 22.5327C10.1904 22.5816 10.0752 22.5357 10.004 22.4335C9.93355 22.3312 9.93355 22.2086 10.0055 22.1594C10.0769 22.1103 10.1904 22.1545 10.2626 22.256C10.3329 22.36 10.3329 22.4826 10.2609 22.5327ZM10.9172 23.2806C10.8542 23.3501 10.7199 23.3315 10.6217 23.2366C10.5211 23.1439 10.4931 23.0123 10.5563 22.9428C10.6201 22.8731 10.7552 22.8927 10.8542 22.9868C10.954 23.0793 10.9844 23.2119 10.9172 23.2806ZM11.7654 23.5331C11.7376 23.6232 11.6083 23.6641 11.4781 23.6259C11.348 23.5864 11.2629 23.4809 11.2892 23.3899C11.3162 23.2993 11.4461 23.2566 11.5773 23.2975C11.7072 23.3368 11.7925 23.4415 11.7654 23.5331ZM12.7308 23.6402C12.734 23.735 12.6236 23.8137 12.4868 23.8154C12.3493 23.8184 12.2381 23.7417 12.2366 23.6484C12.2366 23.5526 12.3446 23.4747 12.4821 23.4724C12.6188 23.4698 12.7308 23.5459 12.7308 23.6402ZM13.6791 23.6038C13.6955 23.6964 13.6004 23.7914 13.4647 23.8168C13.3312 23.8411 13.2076 23.784 13.1906 23.6922C13.1741 23.5974 13.2708 23.5024 13.4041 23.4778C13.5401 23.4542 13.6618 23.5098 13.6791 23.6038Z" fill="white"/>
</svg>
