<svg width="42" height="42" viewBox="0 0 42 42" fill="none" xmlns="http://www.w3.org/2000/svg">
<path d="M32.0884 32.0933H27.4238V24.7838C27.4238 23.0408 27.3884 20.7979 24.993 20.7979C22.5611 20.7979 22.1895 22.6945 22.1895 24.6552V32.0933H17.5249V17.0625H22.0058V19.1112H22.0662C22.6923 17.93 24.2148 16.6832 26.4893 16.6832C31.2157 16.6832 32.0898 19.7939 32.0898 23.8429L32.0884 32.0933ZM12.2566 15.0058C10.7551 15.0058 9.5489 13.7904 9.5489 12.2955C9.5489 10.8019 10.7564 9.58781 12.2566 9.58781C13.7528 9.58781 14.9656 10.8019 14.9656 12.2955C14.9656 13.7904 13.7515 15.0058 12.2566 15.0058ZM14.5955 32.0933H9.91771V17.0625H14.5955V32.0933ZM34.422 5.25H7.57621C6.29127 5.25 5.25177 6.26588 5.25177 7.51931V34.4808C5.25177 35.7354 6.29127 36.75 7.57621 36.75H34.4182C35.7018 36.75 36.7518 35.7354 36.7518 34.4808V7.51931C36.7518 6.26588 35.7018 5.25 34.4182 5.25H34.422Z" fill="white"/>
</svg>
