<svg width="32" height="32" viewBox="0 0 32 32" fill="none" xmlns="http://www.w3.org/2000/svg">
<g clip-path="url(#clip0_6_14)">
<path d="M16 23.6164C24.2843 23.6164 31 20.1206 31 15.8082C31 11.4959 24.2843 8 16 8C7.71573 8 1 11.4959 1 15.8082C1 20.1206 7.71573 23.6164 16 23.6164Z" fill="#8993BE"/>
<path fill-rule="evenodd" clip-rule="evenodd" d="M5.21234 20.4315L6.85625 12.1095H10.6575C12.3012 12.2123 13.1232 13.0341 13.1232 14.4726C13.1232 16.9384 11.1712 18.3767 9.42453 18.2739H7.57543L7.16445 20.4315H5.21234ZM7.98629 16.7329L8.50004 13.6507H9.83562C10.5548 13.6507 11.0684 13.9589 11.0684 14.5753C10.9658 16.3219 10.1438 16.6301 9.21922 16.7329H7.98629ZM12.7413 18.2739L14.3851 9.9521H16.3372L15.9262 12.1095H17.7754C19.4193 12.2123 20.0357 13.0341 19.8303 14.0616L19.1111 18.2739H17.0564L17.7755 14.4726C17.8782 13.9589 17.8782 13.6507 17.1591 13.6507H15.618L14.6934 18.2739H12.7413ZM18.9795 20.4315L20.6233 12.1095H24.4246C26.0686 12.2123 26.8905 13.0341 26.8905 14.4726C26.8905 16.9384 24.9384 18.3767 23.1918 18.2739H21.3425L20.9315 20.4315H18.9795ZM21.7534 16.7329L22.2671 13.6507H23.6028C24.322 13.6507 24.8356 13.9589 24.8356 14.5753C24.733 16.3219 23.911 16.6301 22.9864 16.7329H21.7535H21.7534Z" fill="#232531"/>
</g>
<defs>
<clipPath id="clip0_6_14">
<rect width="30" height="15.708" fill="white" transform="translate(1 8)"/>
</clipPath>
</defs>
</svg>
