<svg width="32" height="32" viewBox="0 0 32 32" fill="none" xmlns="http://www.w3.org/2000/svg">
<path d="M23.6722 3.2359H6.13226C4.95525 3.2359 4 4.19968 4 5.36816V24.712C4 25.889 4.96378 26.8443 6.13226 26.8443H17.6891C17.5612 21.0957 19.5228 9.93972 23.6765 3.21884L23.6722 3.2359Z" fill="#0F80CC"/>
<path d="M23.0325 3.86279H6.13225C5.73108 3.86392 5.34667 4.02378 5.063 4.30745C4.77933 4.59112 4.61947 4.97553 4.61835 5.3767V23.309C8.44788 21.8377 14.1922 20.5712 18.1667 20.6309C19.392 14.9335 21.0152 9.33011 23.0325 3.86279Z" fill="url(#paint0_linear_7_19)"/>
<path d="M27.7661 2.60476C26.5635 1.53863 25.1093 1.96508 23.6722 3.23591L23.0325 3.85852C20.5762 6.45988 18.3416 11.2873 17.591 14.9761C17.8584 15.5603 18.0697 16.1686 18.2221 16.7928L18.316 17.2192L18.4098 17.6542C18.4098 17.6542 18.3885 17.5689 18.2989 17.3131L18.2392 17.1425C18.2272 17.1109 18.2144 17.0796 18.2008 17.0487C17.9563 16.5373 17.6902 16.0365 17.4034 15.5476C17.2482 16.001 17.1018 16.4574 16.9641 16.9165C17.527 17.9485 17.8682 19.714 17.8682 19.714C17.8682 19.714 17.8383 19.5988 17.6976 19.2022C17.5697 18.8483 16.9471 17.7523 16.8021 17.4964C16.5462 18.4346 16.4481 19.0658 16.5377 19.2193C16.7082 19.5178 16.8788 20.0722 17.0281 20.601C17.2584 21.5388 17.4462 22.4865 17.591 23.4412L17.6123 23.7056C17.5681 24.772 17.5895 25.8401 17.6763 26.904C17.7872 28.2388 17.9961 29.3859 18.2605 30L18.4396 29.9019C18.0558 28.6908 17.8938 27.1087 17.962 25.2792C18.0686 22.4859 18.7083 19.117 19.8981 15.6073C21.9152 10.2638 24.6957 6.00784 27.2459 3.97793C24.9217 6.07607 21.7788 12.8652 20.8406 15.377C19.7872 18.1916 19.0409 20.8356 18.5889 23.3644C19.365 20.9933 21.8726 19.9699 21.8726 19.9699C21.8726 19.9699 23.1093 18.4517 24.5422 16.2811L21.7915 17.0146L20.9045 17.4069C20.9045 17.4069 23.1647 16.0294 25.1136 15.4026C27.7875 11.1935 30.7001 5.21038 27.7661 2.60049" fill="#003B57"/>
<defs>
<linearGradient id="paint0_linear_7_19" x1="15.2413" y1="4.25939" x2="15.2413" y2="22.2301" gradientUnits="userSpaceOnUse">
<stop stop-color="#97D9F6"/>
<stop offset="0.92024" stop-color="#0F80CC"/>
<stop offset="1" stop-color="#0F80CC"/>
</linearGradient>
</defs>
</svg>
