<svg width="128" height="128" viewBox="0 0 128 128" fill="none" xmlns="http://www.w3.org/2000/svg">
<path d="M46.8488 128L7 42.7122H40.9718L64.838 104.062L88.2743 42.7122H121.243L82.1106 128H46.8488Z" fill="#005589"/>
<path d="M48.1388 30.3849C46.2037 29.3098 43.4802 25.2246 41.1868 15.9075C37.0299 38.0536 47.001 43.0214 51.8657 63.4966C51.8657 45.149 67.2031 23.6479 55.8075 2.72009C54.6608 18.9176 56.0355 20.7392 48.1388 30.3849Z" fill="#FED925"/>
<path d="M57.886 53.6778C57.886 68.9436 61.0395 62.9233 63.2613 77.6874C77.7388 65.2167 56.8827 54.7528 66.4148 36.5485C65.4831 53.5344 78.3838 58.7664 69.425 81.7009C77.9538 65.7901 78.3121 57.118 84.1891 44.504C87.1146 40.9813 88.1187 38.6832 88.7043 33.9684C88.3337 31.3106 88.3717 30.5632 86.3392 24.6512C87.2709 33.3234 76.5204 44.8623 75.4453 49.1625C75.4453 36.4769 84.5474 35.6168 77.7388 18.9176C76.9141 24.5982 76.1886 26.7813 74.4419 28.9515C75.844 17.454 74.7248 11.3295 69.2816 1C69.2816 1 69.9984 9.38544 67.6332 19.0609C65.2681 28.7365 57.886 38.412 57.886 53.6778Z" fill="#FED925"/>
</svg>
