<svg width="48" height="48" viewBox="0 0 48 48" fill="none" xmlns="http://www.w3.org/2000/svg">
<g clip-path="url(#clip0_607_163)">
<path d="M17.3345 40.7435C15.1735 38.768 14.5426 34.6174 15.443 31.6104C17.0041 33.5062 19.1672 34.1068 21.4077 34.4458C24.8666 34.969 28.2635 34.7733 31.4767 33.1924C31.8443 33.0113 32.1839 32.7707 32.5856 32.5269C32.8871 33.4016 32.9655 34.2847 32.8602 35.1834C32.6042 37.3723 31.5149 39.0631 29.7823 40.3448C29.0895 40.8575 28.3564 41.3158 27.6409 41.7991C25.4427 43.2849 24.848 45.0269 25.674 47.5609C25.6936 47.623 25.7112 47.6847 25.7556 47.8354C24.6332 47.3329 23.8134 46.6015 23.1888 45.6399C22.529 44.6252 22.2152 43.5025 22.1986 42.2878C22.1903 41.6966 22.1903 41.1002 22.1109 40.5174C21.9167 39.0966 21.2497 38.4604 19.9932 38.4238C18.7036 38.3862 17.6835 39.1834 17.413 40.439C17.3923 40.5352 17.3624 40.6304 17.3324 40.7424L17.3345 40.7435Z" fill="url(#paint0_linear_607_163)"/>
<path d="M17.3345 40.7435C15.1735 38.768 14.5426 34.6174 15.443 31.6104C17.0041 33.5062 19.1672 34.1068 21.4077 34.4458C24.8666 34.969 28.2635 34.7733 31.4767 33.1924C31.8443 33.0113 32.1839 32.7707 32.5856 32.5269C32.8871 33.4016 32.9655 34.2847 32.8602 35.1834C32.6042 37.3723 31.5149 39.0631 29.7823 40.3448C29.0895 40.8575 28.3564 41.3158 27.6409 41.7991C25.4427 43.2849 24.848 45.0269 25.674 47.5609C25.6936 47.623 25.7112 47.6847 25.7556 47.8354C24.6332 47.3329 23.8134 46.6015 23.1888 45.6399C22.529 44.6252 22.2152 43.5025 22.1986 42.2878C22.1903 41.6966 22.1903 41.1002 22.1109 40.5174C21.9167 39.0966 21.2497 38.4604 19.9932 38.4238C18.7036 38.3862 17.6835 39.1834 17.413 40.439C17.3923 40.5352 17.3624 40.6304 17.3324 40.7424L17.3345 40.7435Z" fill="url(#paint1_linear_607_163)"/>
<path d="M5 31.1093C5 31.1093 11.3992 27.992 17.8162 27.992L22.6544 13.0185C22.8355 12.2944 23.3644 11.8023 23.9615 11.8023C24.5586 11.8023 25.0875 12.2944 25.2686 13.0185L30.1069 27.992C37.7069 27.992 42.923 31.1093 42.923 31.1093C42.923 31.1093 32.0535 1.49869 32.0323 1.43928C31.7203 0.563831 31.1937 0 30.4836 0H17.4405C16.7305 0 16.2251 0.563831 15.8919 1.43928C15.8684 1.49757 5 31.1093 5 31.1093Z" fill="white"/>
</g>
<defs>
<linearGradient id="paint0_linear_607_163" x1="15.0459" y1="47.8354" x2="35.9124" y2="37.9763" gradientUnits="userSpaceOnUse">
<stop stop-color="#D83333"/>
<stop offset="1" stop-color="#F041FF"/>
</linearGradient>
<linearGradient id="paint1_linear_607_163" x1="15.0459" y1="47.8354" x2="35.9124" y2="37.9763" gradientUnits="userSpaceOnUse">
<stop stop-color="#D83333"/>
<stop offset="1" stop-color="#F041FF"/>
</linearGradient>
<clipPath id="clip0_607_163">
<rect width="38" height="47.8353" fill="white" transform="translate(5)"/>
</clipPath>
</defs>
</svg>
