<svg width="48" height="48" viewBox="0 0 48 48" fill="none" xmlns="http://www.w3.org/2000/svg">
<g clip-path="url(#clip0_1050_69)">
<g clip-path="url(#clip1_1050_69)">
<path d="M47.9968 23.4457V24.0012C47.9968 37.2501 37.2563 48.0004 23.9976 48.0004C14.6192 48.0004 6.49332 42.6164 2.54229 34.7691C1.61008 32.9063 0.903275 30.8986 0.481445 28.7942L5.69474 23.5809L14.0074 15.2587C17.6621 11.6039 23.5838 11.6039 27.229 15.2587L31.9947 20.0244C32.2281 20.2482 32.2281 20.6249 31.9947 20.8487L28.8052 24.0462C28.5717 24.27 28.2047 24.27 27.9728 24.0462L22.3554 18.4208C21.3974 17.4709 19.847 17.4709 18.889 18.4208L6.84914 30.4606C7.75398 32.8708 9.17886 35.0734 11.0513 36.9458C14.5 40.4042 19.087 42.3024 23.9606 42.3121C28.7714 42.3218 33.4212 40.4219 36.8522 37.0441C38.438 35.4855 39.7003 33.6759 40.6148 31.7132C41.1526 30.5749 41.8964 29.5445 42.7819 28.6493L47.9952 23.4441L47.9968 23.4457Z" fill="white"/>
<path d="M47.3682 18.5043L42.3079 23.5647C42.2548 21.2495 41.7734 19.0067 40.9023 16.9265L45.1609 12.668C46.1366 14.4857 46.8852 16.4451 47.3682 18.5043Z" fill="white"/>
<path d="M11.0513 11.0513C14.5096 7.59132 19.1079 5.68665 23.9992 5.68665C28.8905 5.68665 33.4887 7.59132 36.9471 11.0513C38.6602 12.7644 39.9917 14.7576 40.9014 16.9279C41.7724 19.0081 42.2538 21.2509 42.3069 23.5661L47.3673 18.5058C46.8842 16.4449 46.1356 14.4871 45.1599 12.6694C41.1139 5.12796 33.1555 0 24.0008 0C10.7454 0 0 10.7454 0 24.0008C0 24.186 0.00322007 24.3695 0.00644014 24.553L5.21652 19.343C6.11492 18.4446 6.86197 17.4013 7.39972 16.2501C8.29168 14.3422 9.51853 12.5856 11.0529 11.0513H11.0513Z" fill="white"/>
<path d="M42.3066 23.5659L33.5577 32.3165C29.9077 35.9664 23.9892 35.968 20.3377 32.3165L15.9986 27.9774C15.77 27.7488 15.77 27.3785 15.9986 27.1515L19.1945 23.9555C19.4232 23.7269 19.7935 23.7269 20.0205 23.9555L25.2161 29.1495C26.1724 30.1059 27.7229 30.1059 28.6809 29.1495L40.9027 16.9277C41.7737 19.0079 42.2551 21.2507 42.3082 23.5659H42.3066Z" fill="white"/>
</g>
</g>
<defs>
<clipPath id="clip0_1050_69">
<rect width="48" height="48" fill="white"/>
</clipPath>
<clipPath id="clip1_1050_69">
<rect width="47.9968" height="48" fill="white"/>
</clipPath>
</defs>
</svg>
