<svg width="48" height="48" viewBox="0 0 48 48" fill="none" xmlns="http://www.w3.org/2000/svg">
<path fill-rule="evenodd" clip-rule="evenodd" d="M46.2749 36.3735L46.0218 35.9393L29.0785 6.64756C28.1677 5.06661 26.4603 4 24.5 4C22.5397 4 20.8321 5.06661 19.9215 6.64756L2.97386 35.9393L2.72513 36.3735C2.2656 37.1576 2 38.0684 2 39.0421C2 39.3036 2.09275 40.0159 2.09275 40.0159C2.54806 42.457 4.69393 44.3036 7.26981 44.3036C7.8263 44.3036 8.3575 44.2149 8.85919 44.0589L23.6737 39.1729C23.9309 39.0884 24.2133 39.0421 24.5 39.0421C24.7867 39.0421 25.0691 39.0884 25.3263 39.1729L40.1407 44.0589C40.6424 44.2149 41.1737 44.3036 41.7302 44.3036C44.306 44.3036 46.452 42.457 46.9072 40.0159C46.9072 40.0159 47 39.3036 47 39.0421C47 38.0684 46.7343 37.1576 46.2749 36.3735Z" fill="#394EFF"/>
</svg>
