<svg width="48" height="48" viewBox="0 0 48 48" fill="none" xmlns="http://www.w3.org/2000/svg">
<g clip-path="url(#clip0_605_144)">
<path fill-rule="evenodd" clip-rule="evenodd" d="M23.9315 1C11.251 1 1 11.3265 1 24.1019C1 34.3139 7.56814 42.9581 16.6799 46.0176C17.8191 46.2476 18.2364 45.5205 18.2364 44.9089C18.2364 44.3733 18.1988 42.5375 18.1988 40.6248C11.8199 42.002 10.4915 37.8709 10.4915 37.8709C9.46635 35.1935 7.94741 34.5054 7.94741 34.5054C5.85957 33.0902 8.09949 33.0902 8.09949 33.0902C10.4154 33.2432 11.6307 35.4615 11.6307 35.4615C13.6805 38.98 16.9836 37.9859 18.3124 37.3738C18.5021 35.8821 19.1099 34.8494 19.7553 34.2758C14.6676 33.7403 9.31473 31.7515 9.31473 22.8777C9.31473 20.3533 10.2253 18.288 11.6682 16.6818C11.4406 16.1082 10.6431 13.7364 11.8964 10.5619C11.8964 10.5619 13.8326 9.94982 18.1984 12.9332C20.0675 12.4276 21.9951 12.1703 23.9315 12.1681C25.8677 12.1681 27.8415 12.4362 29.6641 12.9332C34.0303 9.94982 35.9666 10.5619 35.9666 10.5619C37.2198 13.7364 36.4219 16.1082 36.1942 16.6818C37.6751 18.288 38.5482 20.3533 38.5482 22.8777C38.5482 31.7515 33.1953 33.7018 28.0696 34.2758C28.9051 35.0024 29.6261 36.3792 29.6261 38.5595C29.6261 41.6574 29.5885 44.1438 29.5885 44.9084C29.5885 45.5205 30.0063 46.2476 31.145 46.018C40.2568 42.9576 46.8249 34.3139 46.8249 24.1019C46.8625 11.3265 36.574 1 23.9315 1Z" fill="white"/>
</g>
<defs>
<clipPath id="clip0_605_144">
<rect width="46" height="45.0612" fill="white" transform="translate(1 1)"/>
</clipPath>
</defs>
</svg>
