<svg width="42" height="42" viewBox="0 0 42 42" fill="none" xmlns="http://www.w3.org/2000/svg">
<path d="M21.6564 6.5625C13.3213 6.5625 6.5625 13.3201 6.5625 21.6564C6.5625 28.3252 10.8874 33.9829 16.8846 35.9789C17.639 36.1187 17.9159 35.6514 17.9159 35.2528C17.9159 34.8928 17.9019 33.704 17.8954 32.4426C13.6963 33.3555 12.8102 30.6618 12.8102 30.6618C12.1236 28.9171 11.1343 28.4532 11.1343 28.4532C9.76484 27.5164 11.2375 27.5357 11.2375 27.5357C12.7532 27.6421 13.5513 29.0911 13.5513 29.0911C14.8975 31.3986 17.0823 30.7315 17.9436 30.3458C18.0791 29.3703 18.4703 28.7044 18.9019 28.3275C15.5494 27.9458 12.0251 26.6516 12.0251 20.868C12.0251 19.2201 12.6147 17.8737 13.5803 16.8166C13.4236 16.4365 12.9069 14.9013 13.7265 12.8222C13.7265 12.8222 14.994 12.4165 17.8784 14.3694C19.0824 14.035 20.3736 13.8673 21.6564 13.8615C22.9391 13.8673 24.2313 14.035 25.4376 14.3694C28.3185 12.4165 29.5842 12.8222 29.5842 12.8222C30.4058 14.9013 29.8889 16.4365 29.7322 16.8166C30.7 17.8737 31.2856 19.2201 31.2856 20.868C31.2856 26.6653 27.7546 27.9418 24.3936 28.3155C24.9349 28.7839 25.4174 29.7025 25.4174 31.1107C25.4174 33.1301 25.3999 34.7557 25.3999 35.2528C25.3999 35.6544 25.6715 36.1252 26.4366 35.9769C32.4306 33.979 36.75 28.323 36.75 21.6564C36.75 13.3201 29.9921 6.5625 21.6564 6.5625ZM12.2156 28.064C12.1824 28.139 12.0644 28.1615 11.9569 28.11C11.8475 28.0608 11.786 27.9586 11.8215 27.8833C11.854 27.8061 11.9722 27.7846 12.0814 27.8364C12.1912 27.8856 12.2536 27.9888 12.2156 28.064ZM12.9581 28.7265C12.8861 28.7933 12.7454 28.7623 12.6499 28.6568C12.5512 28.5516 12.5327 28.4108 12.6057 28.3431C12.6799 28.2764 12.8164 28.3076 12.9154 28.4128C13.0141 28.5193 13.0333 28.659 12.9581 28.7265ZM13.4674 29.5741C13.375 29.6384 13.2237 29.5781 13.1303 29.4439C13.0378 29.3097 13.0378 29.1487 13.1323 29.0842C13.226 29.0198 13.375 29.0777 13.4697 29.211C13.5619 29.3474 13.5619 29.5084 13.4674 29.5741ZM14.3289 30.5558C14.2461 30.647 14.0699 30.6225 13.9409 30.4981C13.809 30.3763 13.7722 30.2036 13.8552 30.1124C13.9389 30.0209 14.1162 30.0467 14.2461 30.1701C14.3771 30.2916 14.4171 30.4656 14.3289 30.5558ZM15.4422 30.8872C15.4057 31.0054 15.236 31.0592 15.065 31.0089C14.8943 30.9572 14.7826 30.8187 14.817 30.6992C14.8525 30.5803 15.023 30.5243 15.1952 30.578C15.3657 30.6295 15.4777 30.767 15.4422 30.8872ZM16.7091 31.0278C16.7134 31.1523 16.5684 31.2555 16.389 31.2577C16.2085 31.2617 16.0625 31.161 16.0605 31.0385C16.0605 30.9128 16.2023 30.8106 16.3827 30.8076C16.5622 30.8041 16.7091 30.9041 16.7091 31.0278ZM17.9538 30.9801C17.9753 31.1015 17.8506 31.2262 17.6724 31.2595C17.4972 31.2915 17.3349 31.2165 17.3127 31.096C17.2909 30.9716 17.4179 30.8468 17.5929 30.8146C17.7713 30.7836 17.9311 30.8566 17.9538 30.9801Z" fill="currentColor"/>
</svg>
