<svg width="48" height="48" viewBox="0 0 48 48" fill="none" xmlns="http://www.w3.org/2000/svg">
<path d="M46.0843 24.5506C46.0843 22.9973 45.934 21.3939 45.6835 19.8906H23.9868V28.7597H36.4135C35.9125 31.6158 34.2589 34.1212 31.8036 35.7247L39.2196 41.4871C43.579 37.4284 46.0843 31.5156 46.0843 24.5506Z" fill="#4280EF"/>
<path d="M23.9866 46.9993C30.1999 46.9993 35.4112 44.9449 39.2193 41.4373L31.8034 35.725C29.749 37.1281 27.0933 37.9298 23.9866 37.9298C17.9736 37.9298 12.8627 33.6704 11.0087 28.2588L3.44238 34.322C7.35079 42.0887 15.2678 46.9993 23.9866 46.9993Z" fill="#34A353"/>
<path d="M11.0591 28.4104C10.1071 25.5543 10.1071 22.4476 11.0591 19.5914L3.44275 13.6787C0.185749 20.1927 0.185749 27.8592 3.44275 34.3231L11.0591 28.4104Z" fill="#F6B704"/>
<path d="M23.9866 10.1205C27.2436 10.0704 30.4505 11.3231 32.8055 13.5779L39.3697 6.9637C35.2107 3.05529 29.6989 0.950767 23.9866 1.00087C15.2678 1.00087 7.35079 5.91144 3.44238 13.6781L11.0588 19.5909C12.9128 14.1291 17.9736 10.1205 23.9866 10.1205Z" fill="#E54335"/>
</svg>
