<svg width="42" height="42" viewBox="0 0 42 42" fill="none" xmlns="http://www.w3.org/2000/svg">
<path d="M20.5013 2C15.477 2 14.8465 2.02197 12.8731 2.11177C10.9036 2.20196 9.55926 2.51377 8.38295 2.97126C7.16618 3.44379 6.13402 4.07588 5.10572 5.10456C4.07665 6.13287 3.44456 7.16502 2.97049 8.38141C2.51184 9.5581 2.19965 10.9028 2.111 12.8716C2.02313 14.8449 2 15.4758 2 20.5002C2 25.5245 2.02235 26.1532 2.11177 28.1265C2.20235 30.096 2.51415 31.4404 2.97126 32.6167C3.44417 33.8334 4.07626 34.8656 5.10495 35.8939C6.13287 36.923 7.16502 37.5566 8.38102 38.0291C9.5581 38.4866 10.9028 38.7984 12.8719 38.8886C14.8453 38.9784 15.4755 39.0004 20.4994 39.0004C25.5242 39.0004 26.1528 38.9784 28.1261 38.8886C30.0956 38.7984 31.4415 38.4866 32.6186 38.0291C33.835 37.5566 34.8656 36.923 35.8935 35.8939C36.9226 34.8656 37.5547 33.8334 38.0287 32.617C38.4835 31.4404 38.7957 30.0956 38.8882 28.1269C38.9769 26.1535 39 25.5245 39 20.5002C39 15.4758 38.9769 14.8453 38.8882 12.8719C38.7957 10.9024 38.4835 9.5581 38.0287 8.3818C37.5547 7.16502 36.9226 6.13287 35.8935 5.10456C34.8644 4.07549 33.8354 3.4434 32.6174 2.97126C31.438 2.51377 30.0929 2.20196 28.1234 2.11177C26.1501 2.02197 25.5218 2 20.496 2H20.5013ZM18.8417 5.33389C19.3343 5.33312 19.8839 5.33389 20.5013 5.33389C25.4409 5.33389 26.0264 5.35162 27.977 5.44027C29.7807 5.52275 30.7597 5.82414 31.4118 6.07737C32.2752 6.41268 32.8907 6.81352 33.5378 7.46103C34.1853 8.10853 34.5862 8.72521 34.9222 9.58855C35.1755 10.2399 35.4773 11.2189 35.5593 13.0226C35.648 14.9729 35.6673 15.5587 35.6673 20.496C35.6673 25.4332 35.648 26.019 35.5593 27.9693C35.4769 29.773 35.1755 30.752 34.9222 31.4034C34.5869 32.2667 34.1853 32.8814 33.5378 33.5286C32.8903 34.1761 32.2756 34.5769 31.4118 34.9122C30.7605 35.1666 29.7807 35.4672 27.977 35.5497C26.0267 35.6384 25.4409 35.6576 20.5013 35.6576C15.5614 35.6576 14.976 35.6384 13.0257 35.5497C11.222 35.4665 10.243 35.1651 9.59047 34.9118C8.72713 34.5765 8.11046 34.1757 7.46295 33.5282C6.81545 32.8807 6.41461 32.2655 6.07852 31.4018C5.8253 30.7505 5.52352 29.7715 5.44142 27.9677C5.35277 26.0175 5.33505 25.4316 5.33505 20.4913C5.33505 15.551 5.35277 14.9683 5.44142 13.018C5.5239 11.2143 5.8253 10.2353 6.07852 9.58315C6.41384 8.71981 6.81545 8.10314 7.46295 7.45563C8.11046 6.80812 8.72713 6.40729 9.59047 6.0712C10.2426 5.81682 11.222 5.51619 13.0257 5.43333C14.7324 5.35624 15.3938 5.33312 18.8417 5.32926V5.33389ZM30.3766 8.40569C29.9375 8.40569 29.5082 8.53591 29.1431 8.77989C28.778 9.02386 28.4935 9.37063 28.3255 9.77633C28.1575 10.182 28.1136 10.6284 28.1993 11.0591C28.285 11.4898 28.4965 11.8853 28.8071 12.1958C29.1176 12.5062 29.5133 12.7176 29.944 12.8032C30.3747 12.8887 30.8211 12.8447 31.2267 12.6765C31.6323 12.5084 31.979 12.2237 32.2229 11.8585C32.4667 11.4934 32.5968 11.0641 32.5966 10.6249C32.5966 9.39931 31.6022 8.40492 30.3766 8.40492V8.40569ZM20.5013 10.9996C15.2546 10.9996 11.0007 15.2535 11.0007 20.5002C11.0007 25.7469 15.2546 29.9989 20.5013 29.9989C25.7481 29.9989 30.0008 25.7469 30.0008 20.5002C30.0008 15.2535 25.7481 10.9996 20.5013 10.9996ZM20.5013 14.3335C23.9069 14.3335 26.6681 17.0942 26.6681 20.5002C26.6681 23.9058 23.9069 26.6669 20.5013 26.6669C17.0954 26.6669 14.3346 23.9058 14.3346 20.5002C14.3346 17.0942 17.0954 14.3335 20.5013 14.3335Z" fill="currentColor"/>
</svg>
