<svg width="48" height="48" viewBox="0 0 48 48" fill="none" xmlns="http://www.w3.org/2000/svg">
<g clip-path="url(#clip0_1127_320)">
<path d="M46.6875 23.4307V23.9574C46.6875 36.5086 36.5127 46.6926 23.9524 46.6926C15.0669 46.6926 7.36955 41.5922 3.62731 34.1582C2.74535 32.3928 2.07469 30.4925 1.67505 28.4974L6.61467 23.5578L14.4896 15.6737C17.9516 12.2116 23.5619 12.2116 27.0163 15.6737L31.5318 20.1892C31.7523 20.402 31.7523 20.7572 31.5318 20.9701L28.5107 24.0003C28.2902 24.2131 27.9426 24.2131 27.7222 24.0003L22.4013 18.6702C21.4933 17.7699 20.0249 17.7699 19.1169 18.6702L7.711 30.0761C8.56847 32.3591 9.91745 34.4461 11.6906 36.2207C14.9581 39.496 19.3021 41.2951 23.9187 41.3043C28.4755 41.3135 32.8807 39.5143 36.1299 36.3141C37.632 34.8381 38.8294 33.1231 39.6945 31.2643C40.2029 30.1863 40.9088 29.2109 41.7479 28.3611L46.6875 23.4307Z" fill="#E3E3E3"/>
<path d="M23.9539 6.60548C19.3205 6.60548 14.9628 8.41076 11.6875 11.6875L11.6891 11.689C10.236 13.1421 9.07379 14.8065 8.22857 16.6134C7.71869 17.7051 7.01128 18.6927 6.15993 19.5441L1.2249 24.4791C1.22184 24.3045 1.21878 24.13 1.21878 23.9554C1.21878 11.3981 11.3981 1.21875 23.9554 1.21875C32.6281 1.21875 40.1677 6.07569 44.0018 13.2187C44.9251 14.9398 45.6341 16.7956 46.0919 18.7478L41.2977 23.542L33.0093 31.8334C29.5518 35.2924 23.9446 35.2924 20.4856 31.8334L16.3744 27.7222C16.1585 27.5063 16.1585 27.1556 16.3744 26.9397L19.4016 23.9126C19.6175 23.6967 19.9681 23.6967 20.184 23.9126L25.1052 28.8338C26.0117 29.7403 27.4801 29.7403 28.3866 28.8338L39.9656 17.2534C39.1051 15.1985 37.8434 13.3106 36.2203 11.6875C32.9435 8.40923 28.5873 6.60548 23.9539 6.60548Z" fill="#E3E3E3"/>
</g>
<defs>
<clipPath id="clip0_1127_320">
<rect width="45.4688" height="45.4718" fill="#E3E3E3" transform="translate(1.21877 1.21875)"/>
</clipPath>
</defs>
</svg>
