<svg width="48" height="48" viewBox="0 0 48 48" fill="none" xmlns="http://www.w3.org/2000/svg">
<path d="M47.0394 24.5047C47.0394 21.4548 43.22 18.5644 37.3642 16.772C38.7155 10.8036 38.1149 6.05516 35.4685 4.5349C34.8585 4.1783 34.1453 4.00938 33.3664 4.00938V6.10208C33.7981 6.10208 34.1453 6.18654 34.4363 6.34607C35.7125 7.07805 36.2662 9.86519 35.8345 13.45C35.7313 14.3321 35.5624 15.2612 35.3559 16.209C33.5166 15.7585 31.5084 15.4113 29.3969 15.1861C28.13 13.45 26.8162 11.8734 25.493 10.4939C28.5523 7.65049 31.4239 6.0927 33.3758 6.0927V4C30.7951 4 27.4168 5.83932 24.0009 9.02998C20.585 5.85809 17.2067 4.03754 14.626 4.03754V6.13024C16.5686 6.13024 19.4495 7.67864 22.5088 10.5033C21.195 11.8828 19.8812 13.45 18.6331 15.1861C16.5122 15.4113 14.504 15.7585 12.6647 16.2184C12.4488 15.2799 12.2893 14.3696 12.1767 13.4969C11.7356 9.91211 12.2799 7.12497 13.5468 6.38361C13.8283 6.21469 14.1943 6.13962 14.626 6.13962V4.04692C13.8377 4.04692 13.1245 4.21584 12.5051 4.57244C9.86816 6.0927 9.27695 10.8318 10.6377 16.7814C4.80064 18.5832 1 21.4642 1 24.5047C1 27.5546 4.81941 30.4449 10.6752 32.2374C9.32387 38.2058 9.92447 42.9542 12.5708 44.4745C13.1808 44.8311 13.894 45 14.6823 45C17.263 45 20.6413 43.1607 24.0572 39.97C27.4731 43.1419 30.8515 44.9625 33.4321 44.9625C34.2204 44.9625 34.9336 44.7935 35.553 44.4369C38.19 42.9167 38.7812 38.1776 37.4205 32.228C43.2387 30.4356 47.0394 27.5452 47.0394 24.5047ZM34.821 18.2454C34.4738 19.4559 34.0421 20.704 33.5541 21.9522C33.1694 21.2014 32.7659 20.4507 32.3248 19.6999C31.8931 18.9492 31.4333 18.2172 30.9735 17.504C32.306 17.7011 33.5917 17.9451 34.821 18.2454ZM30.523 28.2396C29.791 29.5065 29.0403 30.7077 28.2614 31.8244C26.8631 31.9464 25.4461 32.0121 24.0197 32.0121C22.6027 32.0121 21.1856 31.9464 19.7968 31.8338C19.0179 30.7171 18.2577 29.5253 17.5257 28.2678C16.8125 27.0385 16.165 25.7903 15.5738 24.5328C16.1556 23.2753 16.8125 22.0179 17.5164 20.7885C18.2483 19.5216 18.9991 18.3204 19.778 17.2037C21.1762 17.0817 22.5933 17.016 24.0197 17.016C25.4367 17.016 26.8537 17.0817 28.2426 17.1943C29.0215 18.3111 29.7816 19.5029 30.5136 20.7604C31.2268 21.9897 31.8743 23.2378 32.4656 24.4953C31.8743 25.7528 31.2268 27.0103 30.523 28.2396ZM33.5541 27.0197C34.0609 28.2772 34.4926 29.5347 34.8492 30.7546C33.6198 31.0549 32.3248 31.3083 30.9828 31.5054C31.4427 30.7828 31.9025 30.0414 32.3342 29.2813C32.7659 28.5306 33.1694 27.7704 33.5541 27.0197ZM24.0385 37.0327C23.1657 36.1318 22.293 35.1277 21.4296 34.0298C22.2742 34.0673 23.1376 34.0954 24.0103 34.0954C24.8924 34.0954 25.7652 34.0767 26.6191 34.0298C25.7745 35.1277 24.9018 36.1318 24.0385 37.0327ZM17.0565 31.5054C15.724 31.3083 14.4383 31.0643 13.209 30.764C13.5562 29.5534 13.9879 28.3053 14.4759 27.0572C14.8606 27.808 15.2641 28.5587 15.7052 29.3095C16.1463 30.0602 16.5967 30.7922 17.0565 31.5054ZM23.9915 11.9767C24.8643 12.8775 25.737 13.8817 26.6004 14.9796C25.7558 14.9421 24.8924 14.9139 24.0197 14.9139C23.1376 14.9139 22.2648 14.9327 21.4109 14.9796C22.2554 13.8817 23.1282 12.8775 23.9915 11.9767ZM17.0472 17.504C16.5873 18.2266 16.1275 18.968 15.6958 19.7281C15.2641 20.4788 14.8606 21.2296 14.4759 21.9803C13.9691 20.7228 13.5374 19.4653 13.1808 18.2454C14.4102 17.9545 15.7052 17.7011 17.0472 17.504ZM8.55436 29.2531C5.23232 27.8361 3.08331 25.978 3.08331 24.5047C3.08331 23.0314 5.23232 21.1639 8.55436 19.7562C9.36141 19.409 10.2435 19.0993 11.1538 18.8084C11.6887 20.6477 12.3925 22.5621 13.2653 24.5235C12.4019 26.4754 11.7075 28.3804 11.182 30.2103C10.2529 29.9194 9.3708 29.6004 8.55436 29.2531ZM13.6031 42.6633C12.3268 41.9313 11.7732 39.1442 12.2049 35.5594C12.3081 34.6773 12.477 33.7482 12.6835 32.8004C14.5228 33.2509 16.531 33.5981 18.6425 33.8233C19.9094 35.5594 21.2232 37.136 22.5463 38.5154C19.4871 41.3589 16.6155 42.9167 14.6635 42.9167C14.2412 42.9073 13.8846 42.8228 13.6031 42.6633ZM35.8627 35.5125C36.3037 39.0973 35.7594 41.8844 34.4926 42.6258C34.211 42.7947 33.845 42.8698 33.4134 42.8698C31.4708 42.8698 28.5898 41.3214 25.5306 38.4967C26.8444 37.1172 28.1582 35.55 29.4063 33.8139C31.5271 33.5887 33.5354 33.2415 35.3747 32.7816C35.5905 33.7295 35.7594 34.6397 35.8627 35.5125ZM39.4756 29.2531C38.6686 29.6004 37.7865 29.91 36.8762 30.201C36.3413 28.3616 35.6374 26.4472 34.7647 24.4859C35.6281 22.534 36.3225 20.629 36.848 18.799C37.7771 19.09 38.6592 19.409 39.485 19.7562C42.8071 21.1733 44.9561 23.0314 44.9561 24.5047C44.9467 25.978 42.7977 27.8455 39.4756 29.2531Z" fill="#61DAFB"/>
<path d="M24.0093 28.7931C26.3779 28.7931 28.298 26.873 28.298 24.5044C28.298 22.1359 26.3779 20.2158 24.0093 20.2158C21.6408 20.2158 19.7207 22.1359 19.7207 24.5044C19.7207 26.873 21.6408 28.7931 24.0093 28.7931Z" fill="#61DAFB"/>
</svg>
