<svg width="48" height="48" viewBox="0 0 48 48" fill="none" xmlns="http://www.w3.org/2000/svg">
<path d="M28.5444 4.26513C28.3881 4.26091 28.2312 4.25879 28.074 4.25879H2V38.4809H28.074C37.5241 38.4809 45.185 30.82 45.185 21.3698C45.185 20.0837 45.043 18.8309 44.7742 17.6258C43.1923 18.4559 41.3916 18.9254 39.4813 18.9254C33.1812 18.9254 28.074 13.8181 28.074 7.51803C28.074 6.38781 28.2384 5.29598 28.5444 4.26513Z" fill="url(#paint0_linear_1196_107)"/>
<path d="M2 4.25879L44.3702 46.629H2V4.25879Z" fill="url(#paint1_linear_1196_107)"/>
<path d="M39.4819 14.037C43.0819 14.037 46.0004 11.1186 46.0004 7.51849C46.0004 3.91843 43.0819 1 39.4819 1C35.8819 1 32.9634 3.91843 32.9634 7.51849C32.9634 11.1186 35.8819 14.037 39.4819 14.037Z" fill="url(#paint2_linear_1196_107)"/>
<defs>
<linearGradient id="paint0_linear_1196_107" x1="2" y1="4.25879" x2="2" y2="38.4809" gradientUnits="userSpaceOnUse">
<stop stop-color="#05A0FA"/>
<stop offset="1" stop-color="#4785FF"/>
</linearGradient>
<linearGradient id="paint1_linear_1196_107" x1="2" y1="4.25879" x2="2" y2="46.629" gradientUnits="userSpaceOnUse">
<stop stop-color="#1A8CFF"/>
<stop offset="1" stop-color="#0557FA"/>
</linearGradient>
<linearGradient id="paint2_linear_1196_107" x1="32.9634" y1="1" x2="32.9634" y2="14.037" gradientUnits="userSpaceOnUse">
<stop stop-color="#FF463A"/>
<stop offset="1" stop-color="#FF1F5A"/>
</linearGradient>
</defs>
</svg>
