<svg width="48" height="48" viewBox="0 0 48 48" fill="none" xmlns="http://www.w3.org/2000/svg">
<path d="M7 44V4H25C27.5524 4 29.857 4.55242 31.9142 5.65713C34.0096 6.76184 35.6476 8.28567 36.8285 10.2286C38.0095 12.1333 38.6 14.3048 38.6 16.7428C38.6 19.2571 38.0095 21.5238 36.8285 23.5428C35.6476 25.5238 34.0285 27.0858 31.9713 28.2285C29.9143 29.3714 27.5904 29.9429 25 29.9429H16.2571V44H7ZM29.1715 44L19 25.9429L28.9429 24.5143L40.2571 44H29.1715ZM16.2571 22.5143H24.1428C25.1333 22.5143 25.9905 22.3048 26.7142 21.8857C27.4762 21.4285 28.0475 20.8 28.4285 19.9999C28.8476 19.2 29.0571 18.2857 29.0571 17.2572C29.0571 16.2285 28.8285 15.3333 28.3714 14.5714C27.9142 13.7715 27.2476 13.1619 26.3715 12.7428C25.5333 12.3238 24.5047 12.1143 23.2856 12.1143H16.2571V22.5143Z" fill="white"/>
</svg>
