<svg width="126" height="126" viewBox="0 0 126 126" fill="none" xmlns="http://www.w3.org/2000/svg">
<path fill-rule="evenodd" clip-rule="evenodd" d="M124.561 76.0644C124.62 76.6025 125.397 76.422 125.458 77.0194C125.277 77.7373 125.04 78.5165 124.561 79.1132C123.544 78.5751 123.185 80.0709 122.288 80.1907C121.81 80.8474 122.826 81.1471 122.647 81.8044C122.886 81.9242 123.305 81.9242 123.305 82.2818C122.826 82.9412 123.904 83.3001 123.365 84.0167C123.224 84.3367 122.968 84.5922 122.648 84.7332C122.05 84.6134 121.272 84.6134 121.092 83.8968C120.913 83.7769 120.614 83.7769 120.494 83.8968C120.016 84.6134 120.913 85.0922 121.152 85.6909C121.152 86.229 121.152 86.5287 120.794 86.9469C120.195 87.5443 119.298 86.6486 118.88 87.5443C119.479 89.04 117.504 88.3215 117.265 89.4583C117.265 89.9371 116.847 90.3553 116.369 90.4739C115.891 90.4739 115.591 90.057 115.233 89.9964C114.994 90.4739 115.173 90.8328 114.874 91.3117C115.054 91.7312 115.651 92.0888 115.173 92.6283C114.814 93.0465 115.412 93.9422 114.575 94.182C113.737 94.1227 113.079 93.2256 112.242 93.9429C111.944 94.6608 112.182 95.7383 111.226 95.9767C110.627 96.1572 110.388 96.8132 110.388 97.4725C110.03 98.0106 109.611 97.5924 109.192 98.0106C109.132 98.6686 109.91 98.7878 109.73 99.5064C109.491 99.9852 108.894 99.9852 108.476 99.7454C107.877 98.9077 107.459 100.044 106.861 100.164C106.143 100.521 106.143 101.717 105.187 101.777C104.828 102.136 105.426 102.615 105.007 102.974C104.05 103.691 102.854 104.708 101.599 104.229C100.043 104.826 101 107.038 99.087 107.038C98.5489 107.517 97.5913 106.8 97.2337 107.637C97.4128 108.057 97.3522 108.654 97.0532 108.954C96.5151 109.193 95.9164 109.133 95.3789 108.954C94.6018 108.534 95.618 107.876 94.9607 107.397C94.4819 107.277 94.362 106.739 93.8253 106.739C93.5862 106.978 93.4663 107.338 93.6448 107.636C94.0037 107.936 94.3613 108.354 94.1223 108.833C93.5249 109.491 92.5672 109.192 91.8507 109.431C91.4324 109.85 90.8337 110.267 90.237 109.909C90.1172 109.67 89.998 109.251 90.1764 109.012C90.4748 108.594 91.1934 108.714 91.1341 108.115C90.8344 107.098 89.9973 108.115 89.34 108.056C89.0403 108.714 88.5022 109.012 87.9048 109.431C87.5459 109.55 87.1263 109.431 87.0064 109.073C86.7081 108.415 87.8442 107.817 87.067 107.458C86.5289 107.517 85.9302 107.517 85.8124 106.859C85.8716 106.321 86.5289 105.605 85.8716 105.126C85.2137 104.887 85.3928 105.964 84.7348 106.023C84.3759 106.202 83.9577 106.023 83.7772 105.664C83.7179 105.126 84.4951 104.408 83.7772 104.109C83.5388 104.288 83.1205 104.109 82.8209 104.048C82.5818 102.973 81.1466 103.272 81.1466 102.136C81.1466 101.239 80.4287 100.581 80.7877 99.6242C80.5486 99.2653 80.0118 99.5043 79.8313 99.0255C80.4907 97.9493 78.8158 97.4105 79.5923 96.4542C79.7728 96.2751 80.0118 95.9161 79.7728 95.7377C79.3532 95.5572 78.6359 95.7969 78.576 95.1389C78.8757 94.2419 78.0379 93.2856 79.1747 92.7461C79.1141 92.3279 78.8764 92.1488 78.7565 91.7305C78.4582 90.5338 78.1578 89.3377 77.2621 88.3814C76.8425 87.9026 76.3044 87.3645 76.6028 86.7072C76.9024 86.1085 77.0223 85.3313 77.7396 84.9131C77.7988 83.7763 76.1845 82.5809 77.6197 81.7431C77.9786 81.6232 78.2777 81.8629 78.576 81.8629C78.576 81.205 78.8164 80.1901 78.2777 79.6506C78.0985 79.1731 78.3383 78.6943 78.7565 78.3959C78.9949 78.2155 79.234 78.3353 79.5337 78.4552C79.6535 78.6344 79.8926 78.934 80.1324 78.9933C80.4294 78.2767 79.8933 76.781 81.148 76.6611C81.4477 76.1823 80.3708 76.1823 80.4913 75.5849C80.5493 75.226 80.7297 74.867 81.0887 74.8077C81.5069 74.5687 82.0464 75.2852 82.1662 74.5687C82.2848 72.7745 84.6776 73.4318 84.6776 71.5791C85.3942 70.802 86.1127 71.9381 86.8886 71.9974C87.428 72.4156 87.428 72.8944 87.8462 73.3126C88.0853 73.2534 88.2645 73.0143 88.3251 72.7745C88.3251 72.058 87.428 72.058 87.7264 71.2788C87.9069 70.8606 88.5642 71.1589 88.6234 70.5622C88.7433 69.9649 88.3843 69.3062 89.2221 69.0665C89.6403 69.0665 89.9387 69.3661 90.1192 69.6652C90.3576 69.0072 91.1954 68.7681 91.8527 68.888C93.1087 68.7075 94.1243 67.5121 95.3803 67.6926C95.7392 68.0502 96.2773 67.7519 96.5171 68.3506C96.5171 68.4704 96.2187 68.6489 96.5171 68.7082C97.235 68.2307 97.9523 67.0952 99.0884 67.632C99.6265 67.1531 99.5672 66.0183 100.583 66.0769C100.942 65.8978 100.882 65.3604 101.361 65.3604C101.898 65.2998 101.78 66.0769 101.78 66.3773L101.6 66.7955C102.078 66.976 102.677 66.9141 103.036 67.3336C103.454 67.273 103.931 67.4535 104.112 67.1531C104.051 66.7955 103.992 66.5558 104.171 66.2574C104.829 66.0184 105.129 64.8223 106.085 65.2998C106.503 65.5388 106.623 65.9577 106.684 66.3167C106.863 66.1376 106.863 65.5395 107.281 65.4196C108.058 65.5988 108.896 65.6587 109.733 65.718C110.212 65.6587 110.391 66.6164 110.929 66.2574C111.288 66.0184 111.707 66.0769 112.006 66.3773C112.664 65.6594 112.185 63.7454 113.74 63.9239C114.158 63.6269 113.859 62.7884 114.577 62.8477C114.876 62.8477 115.295 63.0868 115.235 63.4464V64.2236C115.713 64.2828 116.372 64.163 116.611 64.7617C116.551 64.8815 116.669 65.0007 116.79 65.0007C117.268 64.8809 117.568 64.3428 118.106 64.2828C118.585 64.6418 118.822 65.1206 119.003 65.718C118.585 66.4359 117.866 66.0177 117.268 66.4965C117.094 66.4359 116.905 66.4359 116.731 66.4965C116.372 67.2131 117.268 68.4091 115.953 68.4698C115.833 68.7681 115.833 69.0671 115.893 69.3668C116.669 68.0502 118.166 68.8274 119.421 68.23C120.139 68.4092 120.558 66.8555 121.095 67.7512C121.154 68.23 120.259 68.8274 121.095 69.0665C121.633 68.7681 122.351 68.3499 123.009 68.7681C123.188 68.3499 122.53 67.9909 122.889 67.5121C123.248 67.0346 123.786 66.7363 124.444 66.9134C124.923 67.2131 124.683 67.8711 124.564 68.23C124.623 69.0665 125.461 69.6652 125.102 70.5016C124.804 70.8013 124.266 70.7407 124.205 71.2195C124.444 71.6377 125.281 71.9967 124.863 72.5954C124.565 72.8937 124.027 72.8345 123.966 73.312C124.086 74.3882 125.342 74.2104 126 74.7471C125.935 75.4664 125.04 75.7055 124.561 76.0644Z" fill="#E76322"/>
<path fill-rule="evenodd" clip-rule="evenodd" d="M120.614 67.0952C120.195 67.1531 119.777 66.9753 119.777 66.5558C119.777 66.2574 119.956 65.8978 120.315 65.8978C120.674 65.8978 120.914 65.9571 121.152 66.2568C121.212 66.6757 120.973 66.9753 120.614 67.0952ZM117.325 33.0684C117.025 34.4437 117.983 36.1179 116.846 37.1348C116.966 38.1517 118.102 37.0749 118.46 37.9719C118.581 38.4501 118.521 38.7491 118.402 39.168C117.623 39.6462 117.025 40.2442 117.025 41.2012C116.906 41.6794 117.025 42.2181 116.547 42.5165C115.829 42.3973 116.308 41.3803 115.53 41.2611C114.694 41.3204 113.795 41.4995 113.078 41.8592C112.839 42.039 112.42 42.1582 112.36 42.4572C113.139 43.4142 112.181 44.2513 112.062 45.2076C111.943 45.3874 111.644 45.5067 111.704 45.8057C111.943 45.9255 112.361 46.1054 112.242 46.4636C112.242 47.1816 111.285 47.6597 111.824 48.4376C111.465 49.3939 111.345 50.889 110.03 51.0688C109.611 51.1281 109.611 50.5906 109.312 50.5906C108.835 50.8897 108.476 51.7867 107.757 51.4277C107.648 51.3424 107.559 51.2337 107.497 51.1096C107.435 50.9856 107.401 50.8492 107.398 50.7105C107.398 50.1724 108.356 49.9333 107.816 49.3353C107.278 49.6943 107.339 50.6512 106.501 50.6512C106.203 51.1893 106.322 51.9073 106.083 52.4454C106.562 52.6844 107.518 52.5646 107.638 53.4017C107.697 53.8798 107.399 54.358 106.98 54.5977C106.562 55.016 105.902 55.1958 105.365 54.9567C105.247 54.8375 105.007 54.8375 104.947 55.016C104.768 55.1958 104.708 55.3749 104.708 55.5547C105.007 55.8538 105.484 56.0329 105.604 56.4518C105.604 57.0498 105.186 57.5287 104.827 58.0068C105.127 58.3052 105.724 58.7241 105.365 59.3221C104.768 60.2791 102.495 59.0238 102.914 60.8778C102.495 61.7142 101.537 62.1331 100.701 62.253C100.821 62.5514 101.12 62.9103 100.821 63.2693C100.104 63.8666 99.3261 63.4484 98.6082 63.6875C97.5913 64.165 96.6956 65.5409 95.4395 64.9435C94.9607 65.2418 94.8408 65.8998 94.2428 66.1389C93.3471 66.1982 92.45 65.7193 91.7315 66.5571C90.2963 66.4372 89.3992 65.122 88.1446 64.4041C87.2462 64.8236 86.7081 63.6282 85.8716 64.1057C84.9746 64.3448 84.7348 66.2588 83.5394 65.1819C83.2411 64.8243 83.1212 64.165 82.5225 63.9865C81.9251 64.2849 81.0873 64.6445 80.49 64.0458C80.0704 64.1657 79.5916 64.0458 79.3525 63.6882C79.1134 63.2093 79.6522 62.911 79.6522 62.4928C79.1128 62.3736 78.3369 62.2537 78.217 61.5358C78.217 61.356 78.0972 61.1169 77.9174 60.9984C77.4991 61.1775 77.1415 61.6557 76.6021 61.4166C75.8249 61.1176 76.1246 60.2798 75.9441 59.6225C75.1077 59.3841 74.6288 58.4863 73.791 58.1873C73.9715 57.4701 74.0301 56.573 73.9715 55.7359C73.6126 55.4961 72.8953 55.4961 72.8347 54.8988C72.5956 54.3001 73.1937 53.7626 73.3728 53.2246C73.1337 52.4474 72.2966 51.8493 72.7148 51.0116C72.7755 50.0546 73.1331 49.2174 73.7318 48.4403C73.7318 47.9614 73.0738 47.5432 73.4927 47.0644L75.1077 45.5693C75.2275 45.1511 74.8686 44.7921 74.8686 44.3739C75.2275 43.5967 75.5266 42.8788 76.2431 42.2814C76.1839 41.6228 76.0047 41.1446 76.6021 40.7257C76.7826 40.3075 77.5597 40.2476 77.32 39.7694C77.1806 39.6577 77.0859 39.4997 77.0531 39.3241C77.0202 39.1485 77.0513 38.967 77.1408 38.8124C77.7382 37.9154 79.0535 37.617 79.232 36.4802C79.232 36.0613 79.0528 35.404 79.6515 35.2841C80.0105 35.2242 80.3681 35.4633 80.4893 35.7623C80.7277 36.1213 80.3681 36.6594 80.7863 36.8991C81.2059 36.6001 82.3413 37.1981 82.1016 36.2411C80.9661 35.9421 81.0254 34.5669 80.1889 34.0288C79.7101 32.4145 81.8632 32.8327 82.5804 32.1748L83.1199 31.0986C82.9394 30.5005 82.9394 29.7826 83.658 29.6634C83.9563 29.6035 84.3745 29.7826 84.555 29.4836C84.3745 29.1246 84.4944 28.7064 84.7342 28.4074C85.0931 27.9885 85.6312 28.4673 86.0494 28.3475C87.1862 28.1084 86.7074 26.0152 88.1432 26.6732C88.2618 26.8524 88.5008 27.0315 88.7406 26.9123C89.0996 26.6732 89.0389 26.0752 89.5178 26.0152C90.3542 25.7169 91.7301 25.896 92.0891 24.9983C91.9099 24.341 92.6272 24.1612 92.9861 23.9821C93.4649 23.9221 93.8832 24.2811 94.0031 24.6993C93.9438 24.9976 94.1216 25.4765 94.5411 25.4765C95.4382 25.1175 96.6942 24.7592 97.5899 25.4165L97.6505 25.2967C97.47 24.6387 95.9763 24.6986 96.5137 23.6824C96.7528 23.2042 97.2316 23.0843 97.6505 22.9651C98.1886 22.9052 98.9052 22.9052 99.0857 23.5632C99.0251 23.9221 99.384 23.9821 99.6238 23.9821C100.222 23.683 100.88 23.2641 101.658 23.3241C102.435 22.9052 101.359 20.7521 102.914 21.4101C103.093 21.9482 103.87 22.487 103.332 23.1443C103.153 23.3241 103.153 23.6224 103.391 23.7423C104.109 24.1013 104.288 23.2042 104.767 22.9052C104.887 22.5462 104.588 22.128 105.065 21.9489C105.723 22.0081 105.962 22.9052 106.74 22.726C107.637 22.487 109.131 23.3241 109.49 21.829C109.91 21.0518 110.986 22.2479 111.465 21.1118C112.242 21.0518 112.66 21.9489 113.318 22.427C113.497 22.8453 113.198 23.2042 112.839 23.4433C111.943 23.6224 111.465 22.5456 110.687 22.6654C110.986 23.5026 110.507 24.7586 111.465 25.4165C111.644 25.5964 112.003 25.4765 112.242 25.2967C112.719 24.9976 112.421 23.8016 113.379 24.2804C114.095 24.9976 114.215 26.3735 115.411 26.7918C115.829 28.167 118.283 27.15 118.283 29.064C118.521 29.9611 118.581 30.7982 118.283 31.6952L117.325 33.0684ZM116.846 64.3434C116.489 64.4027 116.188 64.0438 116.13 63.7447C116.01 63.5063 116.309 63.2066 116.548 63.1474C116.787 63.1474 117.025 63.1474 117.147 63.3865C117.265 63.6855 117.265 64.3434 116.846 64.3434ZM115.77 67.1531C115.411 66.9753 115.232 66.2574 114.694 66.2574C114.513 66.2574 114.274 66.4366 114.215 66.1376C114.154 65.9571 114.274 65.7786 114.454 65.8985C114.993 66.0769 115.949 66.3167 115.77 67.1531Z" fill="#E76322"/>
<path fill-rule="evenodd" clip-rule="evenodd" d="M114.394 44.6096C113.915 44.5503 114.035 43.8917 113.678 43.5933C113.497 43.1745 113.857 42.9953 113.976 42.6963C114.274 42.4572 114.694 42.2181 115.054 42.5165C115.472 43.1745 114.873 44.0722 114.394 44.6096ZM112.781 72.2964C112.242 72.058 111.644 71.699 111.525 71.101C111.764 70.443 112.781 70.5023 112.9 69.7265C112.9 69.6066 113.02 69.546 113.08 69.4268C113.558 70.0861 113.558 71.2801 113.379 72.1179L112.781 72.2964ZM110.747 75.0475C110.568 75.1068 110.508 75.0475 110.448 74.9276C110.388 74.6279 110.628 74.867 110.747 74.6885C110.986 74.6885 110.867 74.9876 110.747 75.0475ZM109.192 21.4081C108.953 21.4081 108.835 21.2889 108.835 21.1097C108.774 20.87 109.132 20.87 109.252 20.9299C109.431 21.0491 109.371 21.3481 109.192 21.4081ZM106.681 22.0054C106.381 22.1853 105.903 22.0054 105.963 21.5872C105.963 20.9892 106.022 20.2713 106.621 20.0921C106.921 19.9723 107.518 19.7938 107.638 20.212C107.637 20.9892 107.398 21.7071 106.681 22.0054ZM106.561 67.0952C106.202 66.9134 106.86 66.4965 106.681 66.3773C106.62 66.6164 106.681 66.9134 106.561 67.0952ZM105.305 68.529C105.126 68.5883 104.946 68.2307 104.946 68.1108C105.066 67.9909 105.305 68.2893 105.305 68.529ZM103.81 39.1087C103.512 39.228 103.333 38.9889 103.153 38.7498C103.213 38.3908 103.69 38.4508 103.929 38.4508C104.589 38.4508 104.11 39.0481 103.81 39.1087ZM103.333 102.016C102.914 101.777 102.734 101.896 102.316 101.777C102.316 101.418 102.555 101.061 102.854 100.821C103.333 100.76 103.572 101.298 103.751 101.657C103.81 101.958 103.511 102.016 103.333 102.016ZM103.213 58.5429C103.153 58.483 103.153 58.3631 103.213 58.3038H103.631C103.572 58.423 103.391 58.6028 103.213 58.5429ZM92.508 76.5419C92.2096 76.3028 92.2096 75.7055 92.2689 75.3465C92.508 75.3465 92.807 75.5257 92.807 75.8253C92.7477 76.1237 92.7477 76.422 92.508 76.5419ZM90.594 74.7478C90.1758 74.1491 90.5347 73.7915 90.1758 73.2534C90.8337 73.3733 91.0136 74.0912 91.252 74.6279C91.252 74.9283 90.8337 74.8084 90.594 74.7478ZM90.0566 70.7414L89.8175 70.6821C89.7582 70.5016 89.998 70.3824 90.1172 70.2639C90.1482 70.2976 90.1714 70.3377 90.1853 70.3814C90.1992 70.4251 90.2034 70.4712 90.1976 70.5167C90.1919 70.5621 90.1763 70.6058 90.1519 70.6446C90.1275 70.6834 90.095 70.7164 90.0566 70.7414ZM85.2723 62.3096C85.1524 62.1311 85.3329 61.8914 85.4528 61.7122L85.6319 61.8321C85.6312 62.0119 85.3922 62.1904 85.2723 62.3096ZM84.4951 10.5842C84.316 11.3613 83.2404 11.9594 83.957 12.7965C83.957 13.2747 83.7179 13.6935 83.4782 14.0525C83.299 14.2316 82.9401 13.9326 82.8808 14.2916C83.1791 14.7105 83.658 15.3078 83.3596 15.9059C82.402 16.8622 82.9401 17.9391 82.2222 18.8954C82.2828 19.6732 81.7447 20.1514 81.3857 20.7488C81.0874 21.0478 80.6085 20.9878 80.428 21.4067C80.6671 22.2439 80.428 23.1409 80.9069 23.8588C80.8476 24.2178 80.6678 24.5761 80.3095 24.6959C79.6515 24.7559 78.8744 24.636 78.4561 24.1578C78.0366 24.5767 77.021 24.2777 77.1409 25.1741L77.9167 25.6529C78.3955 25.5331 78.2757 24.5161 78.9336 24.8158C79.1727 25.4738 78.2171 26.1311 78.8744 26.7291C78.8744 27.4464 77.7968 27.4464 77.8574 28.2235C77.4985 28.5825 76.9604 28.5825 77.021 29.1805L76.7213 30.0776C77.7975 30.7948 76.8412 31.931 77.7382 32.7088C77.8581 33.6658 76.8412 33.5459 76.3031 33.7251C76.1239 33.7251 75.8242 33.6658 75.8242 33.9049C75.6451 35.34 78.2171 34.6221 77.1409 36.2371C76.6014 36.5961 75.9441 36.656 75.5259 37.254C75.8242 37.553 76.0047 38.0911 75.7064 38.57C74.4504 38.9289 75.8855 40.0045 74.808 40.6032C74.0308 41.2012 74.9279 42.4565 73.7318 42.8155C73.0738 43.1145 72.7149 44.1308 71.7585 43.8324C71.3996 43.6526 70.8615 43.9523 70.7416 44.3705C70.6823 44.9086 71.2204 45.5067 70.8022 46.0448C69.3657 46.3438 68.2309 48.4968 66.556 47.3008C65.8967 47.3607 65.8381 48.3177 65.1209 48.3177C63.3261 47.7197 63.2662 50.6499 61.4128 49.5138C60.3366 48.5575 59.3803 50.231 58.3633 49.5737C57.8852 49.2747 58.0643 48.3776 57.3471 48.5574C57.108 48.6767 57.1673 49.0949 57.3471 49.2148C57.407 50.1717 58.9021 49.6336 58.5425 50.7698C58.3034 50.9496 58.005 51.1287 57.7054 50.8897C57.5255 50.2916 56.8076 50.5906 56.5093 50.3516C55.9705 49.8734 55.3732 49.2754 54.7751 49.3353C54.3562 49.5744 53.7589 49.7542 53.28 49.5744C52.8611 48.7972 52.2032 48.1392 52.4422 47.1822C52.0233 47.0624 51.8442 47.6604 51.426 47.7203C50.4697 47.6604 49.4527 47.0617 49.1537 46.1653C49.1537 45.7464 49.6911 44.9692 48.914 44.9093C48.4957 44.9692 48.0169 44.7894 47.7186 44.6103C47.2997 44.7295 46.8215 45.2682 46.3427 44.9093C46.1043 43.3543 45.7453 41.9198 45.9844 40.6038C45.7453 40.0051 45.4463 39.3478 44.729 39.4078C44.49 39.2286 44.43 38.8697 44.5492 38.6306C44.8483 38.0925 45.7453 38.5107 45.6254 37.7935C45.2671 36.7173 43.0548 37.0756 43.9512 35.6404C44.1903 35.4013 44.5499 35.2215 44.6098 34.9232C44.3708 33.9662 42.9356 33.0698 43.8926 31.933C43.7128 31.4548 42.7558 31.6946 42.6965 31.0366C43.0555 30.0197 44.1317 29.6015 44.7304 28.7044C44.7304 28.2855 44.3714 27.7474 44.6705 27.3285C44.9089 27.1487 45.5076 26.9702 45.8665 27.2093L46.8828 27.9865C47.301 27.5676 47.7798 27.3884 48.258 27.2093C47.3603 26.7311 47.7798 25.595 47.1212 24.9963C46.7629 24.2198 48.3173 23.3227 47.002 22.8439C46.643 22.8439 46.3433 22.5449 46.4033 22.1267C46.2841 20.6915 48.0176 20.4518 48.4964 19.1958L49.6325 17.4016C49.6925 16.8036 49.3935 16.3254 49.7524 15.7274C50.2905 15.4883 51.0084 15.4277 51.5472 15.1294C51.3674 14.6505 50.9485 14.2923 51.2482 13.8141C52.2644 13.3952 52.0254 12.1998 52.7433 11.5412C52.3244 10.8232 52.8632 10.106 53.2221 9.62785C53.5804 9.38877 54.0585 9.44803 54.4774 9.62785C55.0755 10.106 54.0585 10.8232 54.6566 11.2421C55.3146 11.0031 55.7934 11.422 56.3308 10.8832C56.2109 10.5842 55.8527 10.9424 55.6136 10.764C54.8963 10.1653 55.4937 9.44803 55.4937 8.73012C55.7328 8.37116 56.2109 8.19202 56.6298 8.01288C57.0487 7.3549 57.2878 6.39858 58.1256 6.27938C58.7829 7.11582 59.919 6.45852 60.3979 7.41552C60.577 7.77447 60.1588 8.31257 60.637 8.61091C60.9353 8.49171 61.0552 8.13275 61.1744 7.95294C61.1151 7.29497 60.4571 6.75754 60.6955 6.09957C61.2942 5.56147 61.2942 4.90349 61.2942 4.24619C62.132 3.70809 62.192 2.33288 63.3274 2.87098C63.6265 3.05012 63.6871 3.4084 63.5066 3.64816C63.4473 3.94717 62.9685 4.00711 63.2675 4.36607C63.9854 4.18625 64.2252 3.17 65.0616 3.46834C65.5997 3.4084 66.3769 4.42533 66.6166 3.4084C66.9163 2.7511 67.0941 2.03319 67.8726 1.73484C68.7091 2.03319 69.3671 1.49509 70.0244 1.31595L71.2211 1.19607C71.4595 0.837116 71.4003 0.23908 71.9377 0C72.3559 0 72.6556 0.358957 72.8953 0.657975C73.1338 1.43515 72.5957 2.33221 73.3136 3.05012C73.5526 3.34846 74.0907 3.64816 74.509 3.34846C75.0471 2.81104 74.4497 1.97325 74.8679 1.43515C75.7057 1.19607 76.423 0.299018 77.32 0.717913C77.7975 1.49509 78.875 2.51202 78.1565 3.52828C78.3369 4.06638 78.3369 4.54521 78.8744 4.90349C79.4125 4.18558 80.1304 4.24552 80.8476 4.4846C81.5056 5.02337 81.3857 5.97969 81.4463 6.6976C81.6854 7.11582 82.2222 7.05588 82.5225 6.81748C82.9407 6.63766 82.7017 5.86049 83.3603 5.97969C84.615 6.03963 84.3759 7.41484 84.615 8.3119C84.316 9.02981 84.4951 9.86693 84.4951 10.5842ZM81.5049 95.7383C81.3258 95.6185 81.2066 95.5578 81.2066 95.4386L81.8053 95.3188C81.8645 95.4993 81.6248 95.6777 81.5049 95.7383ZM77.3799 108.475C77.4985 109.013 78.2757 109.372 77.8574 110.03C77.2601 110.507 77.4985 111.286 77.021 111.824C77.0803 112.183 77.3193 112.601 77.1409 113.019C76.9018 113.258 76.662 113.319 76.3623 113.319C76.1239 113.139 76.0047 112.9 75.7057 112.96C75.4666 113.377 76.1832 113.377 76.3031 113.617C76.7819 114.514 75.6451 114.993 75.7057 115.89C75.107 116.549 74.2692 116.309 73.6712 116.787C73.3136 116.846 72.8347 116.548 72.595 116.726C73.0132 117.743 71.3996 118.283 71.937 119.299C72.1175 119.778 71.578 120.195 71.2204 120.375C70.8615 120.494 70.4433 120.613 70.0836 120.436C70.023 120.195 69.7247 119.957 69.5455 119.837C69.365 119.896 69.3065 119.957 69.3065 120.135C69.7247 120.673 70.5625 121.152 70.023 122.049C69.7247 122.348 69.1866 122.648 68.7077 122.408C68.2303 122.288 68.0498 121.271 67.3925 121.749C67.1534 122.348 67.3925 123.005 66.6759 123.304C65.8381 123.663 65.7182 122.528 64.9411 122.826C63.9847 123.185 63.2069 124.201 62.1314 123.962C61.6525 123.783 61.4135 122.946 60.876 123.484C60.6369 124.022 60.9952 124.92 60.2773 125.218C59.2004 125.697 59.1412 124.381 58.5431 124.081C58.0643 124.501 57.5269 125.218 56.809 124.86C56.4507 124.679 56.151 124.381 56.0318 124.081C55.9719 123.245 57.407 123.185 56.9289 122.288C56.6298 121.929 57.2279 121.629 57.1087 121.271C56.7497 121.091 56.3315 120.673 56.6904 120.314C57.2285 120.075 57.7666 119.657 57.9451 119.118C58.4239 118.879 58.9028 118.998 59.3809 119.118C59.979 119.477 59.8591 120.852 60.9952 120.255C61.4727 119.957 60.6955 119.597 60.9952 119.238C61.2936 118.82 61.4727 118.221 61.2936 117.683C61.1144 117.504 60.7555 117.563 60.5757 117.683C60.0975 117.862 60.6363 118.639 59.9177 118.52C59.2604 118.042 58.5425 117.145 57.6454 117.683C56.0904 117.563 56.2103 119.357 55.0142 119.896C54.8943 120.194 54.9543 120.374 55.1334 120.612C55.4924 120.732 55.6116 121.152 55.4924 121.51C55.0142 122.227 53.9373 120.612 53.8181 122.049C53.9979 122.467 54.1771 123.005 53.9979 123.484C53.34 124.081 52.4429 123.303 51.7257 123.841C51.0078 124.08 50.2905 123.543 49.5726 123.782C48.9146 124.2 48.6163 123.423 48.1375 123.244C47.1805 123.364 46.2235 123.602 45.387 123.185C45.1479 122.946 45.2072 122.408 44.729 122.408C43.9512 122.766 44.9681 123.721 44.0118 124.08C43.234 124.08 42.8157 123.065 41.9779 123.303C41.4398 123.484 40.9017 124.08 40.3637 123.782C39.8256 123.244 38.8086 122.826 38.8686 121.869C37.9116 121.271 36.7155 121.391 35.9376 120.554C35.5787 120.194 35.9976 119.357 35.2797 119.357C34.5624 119.477 33.9644 118.998 33.5455 118.58C33.1266 118.759 32.5286 119.059 32.1703 118.639C31.9312 118.341 32.1103 117.742 31.6322 117.683C31.154 117.742 31.0342 118.282 30.556 118.282C29.8388 118.282 29.1801 118.043 28.4629 118.402C27.9847 118.282 28.2238 117.803 27.9248 117.505C27.3267 117.026 27.3867 116.07 26.5496 115.95C26.2505 114.694 24.218 115.95 24.5763 114.454C24.2173 114.095 24.2173 113.557 24.0981 113.019C23.3802 112.84 23.7392 111.882 23.2604 111.823C22.1242 112.66 21.347 110.806 20.0311 111.464C19.3738 111.166 19.7327 110.029 18.8357 109.909C18.2377 109.491 18.8956 108.594 18.2377 108.415C17.5797 108.892 16.9816 108.354 16.3243 108.176C15.9654 107.756 15.6064 107.098 15.0683 107.458C14.7094 107.817 14.2912 108.235 13.8729 107.937C13.3941 107.219 13.3941 106.202 13.454 105.425C12.7368 104.886 12.4378 103.93 11.7205 103.451L9.62741 105.006C9.44827 105.006 9.26913 104.825 9.38833 104.708C9.62741 104.109 9.92643 103.452 10.4645 103.094C10.6443 102.974 10.9434 102.974 11.1225 102.855C10.9434 102.435 10.8841 102.076 10.5245 101.837C9.74729 102.136 9.08932 101.777 8.37208 102.076C7.95318 101.837 8.37208 101.418 8.13232 101.06C8.01312 100.88 7.95318 100.701 8.01312 100.461C8.19294 100.043 8.67109 100.163 8.91017 100.341L9.26913 100.64C9.74729 100.461 9.26913 99.9219 9.14925 99.6835C8.7903 99.2047 8.19226 99.4444 7.89324 99.6242C7.7141 99.2047 8.49128 98.7272 8.01245 98.1877C7.7141 97.3513 6.15907 97.2314 6.69717 96.1552C6.45809 95.1976 5.74018 94.6002 4.90306 94.2412C4.54411 93.5247 3.16822 93.0458 3.64705 92.0289C3.40797 90.7123 3.88613 89.3377 2.86987 88.3208C2.75 87.5436 3.46791 86.6479 2.75 86.1085C1.85294 85.8694 2.03276 84.8525 1.37478 84.375C0.896623 84.2551 0.41779 83.9554 0.238648 83.5372C0.17871 83.358 0.298587 83.1796 0.477728 83.1796C0.716808 83.1796 0.896623 83.7163 1.19497 83.4187C1.67313 82.8792 0.955888 82.461 1.07576 81.8623C1.31484 81.3848 1.25491 80.547 1.91288 80.4271C2.39104 80.4271 2.92914 81.0851 3.10895 80.3086C3.16822 79.7692 2.75 79.4708 2.39104 79.2311C2.09202 79.4102 1.61386 79.5294 1.25491 79.3509C1.13503 79.2311 0.955888 78.9327 0.836685 79.0526H0.955888C0.716808 78.0357 1.73307 77.9158 2.09202 77.1373C2.3311 76.7796 3.28809 76.4806 2.86987 75.9432C2.75 75.0461 1.31484 75.4644 1.61386 74.3282C1.85294 73.4312 1.13503 72.0566 2.27116 71.5172C2.69073 71.4579 3.10895 71.1582 3.22816 70.74C3.22816 69.8443 4.30435 70.1427 4.78319 69.9642C5.20141 69.6052 5.50042 69.0658 6.0392 68.9459C5.80012 68.7068 5.32128 68.4078 5.38122 67.929C5.68024 67.3316 5.5011 66.3154 6.33821 66.1955C7.65416 66.3154 8.07238 64.2222 9.62674 64.7011C9.80655 64.7603 10.0456 64.8802 10.1049 65.1193C10.2248 65.6574 9.74662 65.9557 9.38766 66.2561C9.08864 66.3154 8.66975 66.3154 8.66975 66.615C8.55054 66.7942 8.78962 66.7942 8.90883 66.912C9.686 66.4952 10.643 66.1955 11.002 65.2984C11.3003 65.1193 11.8384 65.1193 12.0782 65.2984C12.258 65.6574 12.198 66.0163 12.1381 66.376C12.4371 66.4958 12.9752 66.376 13.0351 65.9564C12.9153 65.12 13.5133 64.2822 14.0514 63.5057C14.4703 63.3858 15.0677 63.4451 15.1276 63.9832C14.6494 64.7603 15.7256 64.7011 15.7856 65.2984C15.9654 65.359 16.1445 65.2984 16.3836 65.2984L16.5634 65.1193C16.5035 64.7603 15.9054 65.0587 16.0253 64.5812C16.2644 63.146 17.8194 63.4444 18.7764 62.9662C19.3745 62.7871 19.7327 61.6509 20.5106 62.0106C20.7497 62.2497 20.6904 62.7878 21.1686 62.7878C21.7067 62.6679 22.1848 62.1897 22.6637 61.8907C23.321 61.95 23.919 61.2327 24.6369 61.5317C24.4473 61.0778 24.4054 60.5757 24.517 60.0966C24.876 59.1989 25.8922 59.6184 26.4903 59.7976L27.3274 60.2757C27.6264 60.2165 28.4036 59.8568 28.5834 60.4555C28.5235 60.5747 28.6434 60.6354 28.7033 60.694C29.7202 59.9767 30.4974 61.5317 31.6335 60.8138C31.9918 59.9168 33.6068 60.8138 33.2478 59.4386C33.427 59.1995 33.7859 59.2595 33.9651 59.3793C34.4432 59.6777 33.9651 60.5747 34.6823 60.5747C35.5794 60.3363 35.5794 59.2595 36.1175 58.6614C36.1175 58.3624 36.1774 58.0035 36.4764 57.8836C37.3135 58.0627 38.2705 57.9428 38.8686 58.6015C39.7057 58.4217 39.2268 57.1663 40.1838 57.1064C40.4229 56.7474 39.8848 56.2686 40.3637 55.9703C40.6627 55.6713 41.1408 55.9103 41.4998 55.9703C41.7988 56.1494 41.619 56.5084 41.6796 56.7474L42.3968 56.8074C42.277 56.3885 41.7988 55.7312 42.277 55.3722C42.4561 55.1931 42.875 55.253 43.1141 55.3722C43.5323 55.5521 43.4724 56.0302 43.4131 56.4491C43.9505 56.21 44.7291 56.2693 45.2665 56.6882C45.4463 56.5683 45.8645 56.5683 45.8645 56.2094C45.7446 55.9709 45.6248 55.5521 45.9238 55.3722C46.2221 55.0133 46.7616 54.8947 47.1798 55.0739C47.5387 55.4328 47.3589 56.3299 48.1368 56.1501C49.0338 55.911 49.8709 55.4921 50.5282 56.3892C51.8442 56.1501 52.0233 54.8348 52.3224 53.8179C52.8605 53.3404 53.5184 53.3997 54.2357 53.4596L55.3119 54.1176C56.3288 53.1606 57.7639 53.8179 58.9001 54.2368C59.3782 54.8348 58.6011 55.9709 59.7965 55.7319C60.3352 54.954 61.0525 54.296 60.7535 53.3397C60.9326 52.9801 61.4108 52.9208 61.7697 53.1006C62.2485 53.5195 62.4277 54.1176 62.7267 54.5957C63.2641 54.4759 63.743 53.698 64.2811 54.2368C64.5794 54.5957 64.6993 55.014 64.4602 55.4328C64.2218 55.6127 63.6844 55.7319 63.9221 56.1501C64.042 56.2094 64.1612 56.3892 64.4009 56.3299C64.64 55.911 64.8798 55.5527 65.3586 55.4328C65.6556 55.3729 65.956 55.4921 66.0752 55.7911C66.195 56.3299 65.6556 56.7481 65.3586 57.1071C65.7755 57.8843 65.1781 58.6621 65.8361 59.3194C66.853 59.1403 65.3586 57.7051 66.7332 57.7051C67.5696 57.825 68.109 58.4823 68.7064 59.0211C68.9455 59.0797 69.1852 58.9012 69.1852 58.6022C69.1852 58.3032 69.3051 57.9435 69.6641 57.8843C70.0217 57.8843 70.3806 57.9435 70.6204 58.3032C70.681 58.9012 70.1416 59.0211 69.9038 59.4393C69.8432 59.9174 70.083 60.8751 69.7233 61.4132C69.6035 61.7122 69.9624 61.8321 70.1416 61.8914C70.3806 61.7116 70.8009 61.5924 70.8595 61.2334C70.7396 60.7552 70.3806 60.0973 70.9187 59.7982C71.2184 59.6191 71.5767 59.6191 71.9357 59.7982C72.4145 60.3963 72.4738 61.2334 73.1311 61.7722C73.0112 62.7884 74.6268 63.1474 74.3278 64.2236C73.6685 65.0008 72.2939 63.9239 72.1747 65.2998C72.4731 65.5981 73.0718 65.5981 73.1311 66.1376C73.0718 66.7363 72.5337 67.1531 72.9519 67.7512C72.9017 68.1019 72.7571 68.4325 72.5337 68.7075C72.6536 69.1863 72.593 69.9649 71.935 70.0847C71.5168 70.2033 71.0985 70.0241 71.0379 69.6059C70.4998 70.3225 71.935 71.4593 70.7396 72.1758C71.1578 72.2957 71.576 72.6547 71.6959 73.0136C71.7565 73.3726 71.935 73.7908 71.6366 74.0912C71.3976 74.3296 71.0379 74.3882 70.7396 74.3296C70.5005 74.1491 70.3214 73.8507 70.0217 74.0312C69.9031 74.3296 69.6641 74.6892 69.8425 74.9283C70.3806 74.8677 70.9187 74.4495 71.4562 74.7478C71.6952 75.1068 71.8744 75.7055 71.6366 76.0644C71.3383 76.422 70.9787 76.4826 70.6197 76.4826C71.0985 77.1992 70.9181 78.0377 70.4406 78.695C70.38 79.2331 71.0379 79.4722 71.3376 79.8904C71.576 80.6069 72.4138 81.3255 71.935 82.1633C72.1155 82.5815 72.593 82.9998 72.2939 83.5379C72.0549 83.8968 71.5168 83.9561 71.2177 83.7769C71.0373 83.2995 70.38 83.2388 70.021 83.4786C69.7826 83.5971 69.363 83.6577 69.3044 84.0167C69.2438 84.8531 69.6634 85.7502 70.4412 86.1091C70.6803 86.3482 70.3806 86.6486 70.1416 86.8271C69.8432 87.1254 69.3644 87.3652 69.6641 87.8426C69.6641 88.0231 69.8432 88.1423 69.9624 88.2016C70.9793 87.9033 70.0823 86.0499 71.576 86.4088C72.832 86.4088 72.7728 87.8426 73.1311 88.6212C72.6536 89.2185 73.1311 89.7566 73.3701 90.2954C73.3701 91.2517 72.4138 91.6699 72.5337 92.6869C72.3532 93.7631 71.0985 92.3279 71.0379 93.4627C71.0985 93.7624 70.6197 94.0614 70.7995 94.4204C71.1571 94.2412 71.5161 93.7038 72.0542 94.0614C72.4724 94.5402 72.4724 94.9585 72.3525 95.6178C72.6522 95.8562 73.0704 95.5572 73.4893 95.7969C73.9089 96.2151 74.2073 97.0516 73.8483 97.591C73.7284 98.0093 73.2496 98.0685 73.0105 98.1884C72.2347 98.1291 71.9936 96.3956 71.2177 97.352C71.3969 97.8308 71.1571 98.4888 71.4562 98.8464C71.7558 98.6672 72.1155 98.7871 72.3532 99.0269C72.7122 99.2659 72.5337 99.804 72.6529 100.044C73.4301 99.5057 73.0105 97.3526 74.5669 98.0692C75.2249 98.6679 74.8053 99.6256 74.8053 100.401C75.5232 101.119 76.8991 99.565 77.1388 101.061C76.7193 102.256 76.4795 103.632 75.763 104.708C75.8828 105.246 75.763 106.084 76.1812 106.442C76.7193 106.084 77.3779 105.485 77.9753 105.784C78.6945 106.681 77.6184 107.578 77.3799 108.475ZM77.5591 62.9676C77.3799 62.9083 77.0803 62.7884 77.021 62.5493C76.9604 62.251 77.0803 61.9513 77.3799 61.8321C77.6184 61.8321 77.9167 61.9513 78.0366 62.251C78.1564 62.61 77.8574 62.7884 77.5591 62.9676Z" fill="#E76322"/>
<path fill-rule="evenodd" clip-rule="evenodd" d="M76.662 105.485C76.3031 105.605 76.0633 105.366 75.9441 105.126C75.8848 104.767 76.1246 104.409 76.4229 104.409C76.7213 104.409 77.0809 104.469 77.2001 104.767C77.3799 105.186 76.9604 105.426 76.662 105.485ZM76.662 26.8497C76.5421 26.8497 76.4815 26.7897 76.4229 26.7305C76.4229 26.4315 76.7213 26.3715 76.961 26.3116C76.9604 26.5507 76.8412 26.6705 76.662 26.8497ZM74.2692 89.5788C73.9116 89.5788 73.5526 89.3997 73.3721 89.1C73.3129 88.6225 73.6705 88.2635 74.0301 88.1437C74.3891 88.0831 74.6288 88.2635 74.8073 88.5619C74.8679 88.9801 74.6874 89.459 74.2692 89.5788ZM74.15 25.1748C74.0301 25.1748 73.9708 25.0556 73.9708 24.995L74.2099 24.7565C74.3298 24.8764 74.3891 25.1148 74.15 25.1748ZM73.5526 109.492C73.492 109.311 73.4328 109.013 73.6712 108.774C73.791 108.894 73.791 109.312 73.6712 109.492H73.5526ZM73.0738 103.094C72.9539 103.033 72.7755 103.094 72.7755 102.974C72.9546 102.794 73.1331 102.495 73.4334 102.554C73.5526 102.794 73.4328 103.214 73.0738 103.094ZM72.1767 78.5165C71.7585 78.5758 71.5188 78.2774 71.3403 77.9771C71.2204 77.4982 71.5787 77.1393 71.8771 76.9601C72.2966 76.781 72.595 77.1992 72.7755 77.439C73.0132 77.9178 72.7148 78.5165 72.1767 78.5165ZM71.7585 63.8646C71.578 63.9239 71.5194 63.6855 71.4588 63.5663C71.4588 63.3871 71.5194 63.2679 71.6393 63.2073C71.8185 63.0874 71.8185 63.3878 71.8777 63.4464C71.8178 63.6262 71.937 63.804 71.7585 63.8646ZM71.0399 100.521C70.7416 100.283 70.9807 99.8646 71.0399 99.6256L71.1005 99.5057L71.7585 100.224C71.578 100.462 71.3403 100.582 71.0399 100.521ZM70.9207 85.2128C70.6224 85.2734 70.3234 85.0336 70.3234 84.7945C70.1429 84.4356 70.3826 84.0766 70.6217 83.8975C70.9807 83.7776 71.2204 84.0766 71.3396 84.3763C71.5188 84.6747 71.3403 85.1535 70.9207 85.2128ZM70.9207 104.109C70.5631 103.93 69.9644 103.691 70.0237 103.214C70.2628 102.794 70.683 103.033 71.0406 103.153C71.3996 103.452 71.5188 104.169 70.9207 104.109ZM70.0836 97.1735H69.7247C69.6048 96.8751 69.7247 96.4556 69.9051 96.0959L70.8615 95.2595C71.3996 95.6777 70.6823 96.2764 70.6224 96.8132L70.0836 97.1735ZM70.5624 65.8985C70.2035 65.8985 70.2035 65.4196 70.023 65.2405C70.023 65.1206 70.023 64.9422 70.2035 64.8815C70.3826 65.1206 71.3996 65.6587 70.5624 65.8985ZM68.111 82.1034C67.872 82.1034 67.6915 81.9242 67.7521 81.6245C68.0504 81.3262 67.6322 80.4291 68.3508 80.5483C69.427 80.4877 68.4101 81.4454 68.5899 81.9835L68.111 82.1034ZM66.0166 70.5622C65.3599 70.5016 65.1209 69.8456 64.9404 69.3668C64.9404 69.0671 65.0602 68.7075 65.3599 68.7075C65.7175 68.7681 66.1358 68.888 66.2556 69.3062C66.1971 69.785 66.4954 70.2639 66.0166 70.5622ZM63.2069 6.93668C63.0271 6.6976 62.9079 6.27871 62.9678 5.91975C63.2668 5.80055 63.5059 6.03963 63.7456 6.27938C63.8056 6.63699 63.4466 6.87675 63.2069 6.93668ZM59.0806 108.057C58.9021 107.937 58.6623 107.876 58.8421 107.637C59.022 107.458 59.3196 107.278 59.5587 107.339C59.7978 107.698 59.3802 108.057 59.0806 108.057ZM55.4331 46.0448C55.3132 45.8057 55.553 45.6259 55.792 45.6858L56.5093 45.9249C56.3301 46.2845 55.7321 46.1047 55.4331 46.0448ZM50.2905 55.4928C49.9322 55.6127 49.5733 55.3136 49.5127 54.9547C49.4534 54.5358 49.6325 54.1768 49.9915 54.0576C50.1713 53.8778 50.4097 53.9977 50.5895 54.0576C51.1269 54.4765 50.8885 55.2537 50.2905 55.4928ZM48.1974 31.3942C47.899 31.3942 47.899 31.0359 47.8384 30.9161C47.899 30.9161 47.899 30.7962 47.899 30.7962C48.1374 30.7962 48.4964 31.1545 48.1974 31.3942ZM47.5993 18.597C47.3603 18.5371 47.1804 18.298 47.2404 18.0589C47.3003 17.7599 47.5401 17.5808 47.8384 17.5808C48.0182 17.5808 48.1381 17.7606 48.1381 17.9397C48.0775 18.1788 47.8984 18.5371 47.5993 18.597ZM41.6796 26.3116C41.3806 27.0888 42.1577 27.6868 41.7388 28.464C41.2007 28.8229 40.7226 29.3011 40.4236 29.8392C40.5434 30.7369 42.4568 31.4535 41.0822 32.2913C40.2444 32.5303 40.9623 33.3082 40.6034 33.7864C40.3044 34.6235 40.7226 35.5805 39.9454 36.2378C39.8861 36.8358 40.0653 37.6137 40.6633 37.9719C40.4835 38.7491 40.9024 39.6462 40.0653 39.8859C39.5272 40.1243 38.75 39.3478 38.6301 40.3041C39.0484 41.1413 39.1682 42.2181 38.5709 42.9953C37.793 43.4735 37.6139 44.6695 36.4777 44.4904C36.3585 44.5503 36.2387 44.6702 36.2986 44.8487C36.5377 45.0884 36.9566 45.2676 36.9566 45.6858C37.0158 46.2239 36.5377 46.463 36.1195 46.5828C35.1625 46.5828 34.4452 47.42 33.6681 47.8382C33.6681 47.9581 33.4882 48.0773 33.6681 48.1372C34.027 47.8981 34.4452 47.4792 34.8042 47.8382C36.0595 48.9151 34.5651 50.1111 34.5045 51.1873C33.4882 51.7854 32.412 52.7424 32.2322 53.8778C31.8133 54.5358 31.0362 53.9977 30.558 54.356C30.259 55.1931 29.4212 54.8348 28.8838 55.0739C28.4049 55.4328 28.3457 56.4491 27.5678 56.1501C27.0297 55.9709 27.2688 55.1332 26.6708 55.1931C26.0135 55.313 25.7737 56.3892 24.9965 56.0302C24.2793 55.8511 24.8766 54.5351 23.9197 55.0133C23.0226 55.3123 22.7243 56.2093 22.0063 56.7474C21.4083 56.8074 20.7503 56.8074 20.1523 56.9865C19.2552 56.4484 18.0598 56.5683 17.1628 57.1064C16.9836 57.1663 16.8038 57.3455 16.9237 57.5846C17.282 57.8236 17.1628 58.2432 17.1035 58.5416C16.5648 59.4979 15.6078 58.4816 14.8306 58.8399C13.9928 59.0204 13.1563 58.6614 12.5583 59.5578C11.7212 59.6777 10.8841 59.1396 10.047 59.0204C9.50819 58.7214 9.92709 57.9428 9.32972 57.7044C8.85089 57.7044 8.19292 58.0627 7.89457 57.5253C7.71543 57.2263 7.53562 56.7474 7.77537 56.4484C8.19359 55.9103 8.67175 56.3292 9.09065 55.8504C8.49261 54.9533 7.71543 56.1494 6.93825 56.1494C6.45942 56.2686 5.92132 55.9703 5.6223 55.5514C5.32329 55.3123 5.20341 54.7742 5.5031 54.4745C5.80212 54.1755 6.40016 54.1755 6.45942 53.6374C5.80145 53.5175 5.14415 53.0993 4.72525 52.5605C4.48617 52.9195 4.06728 53.1586 3.58912 53.0986C3.35004 52.9787 3.17022 52.7996 3.17022 52.5006C3.05102 52.0217 3.46924 51.6035 3.8282 51.4836C4.30636 51.4836 4.48617 51.9618 4.72525 52.2608C5.14415 51.8419 4.42623 51.0048 4.90507 50.4667C4.90507 50.2869 4.72525 50.2276 4.60605 50.3468C4.18715 50.6459 3.88881 51.0048 3.35004 51.0648C2.87188 50.3468 1.6758 50.7058 1.6758 49.6296C1.61654 49.2107 1.5566 48.7925 1.97482 48.6133C2.45298 48.4342 2.93114 49.0915 3.23083 48.5541C3.46991 47.8362 2.51292 47.2981 2.93181 46.5802C2.57286 46.5202 2.33378 46.8792 2.03476 46.9384C1.49464 47.061 0.716791 47.0017 0.477711 46.3438C-0.120325 45.4467 1.07575 44.7295 0.597588 43.8917C0.776729 43.2937 0.956544 42.6963 1.4347 42.2181C1.49464 41.9784 1.31483 41.8592 1.19562 41.7393C0.837341 41.9191 0.657526 42.2181 0.239305 42.0983C0.000224693 41.8592 -0.0597136 41.4396 0.0594896 41.1413C0.358508 40.9614 0.657526 40.9022 0.896606 41.1413C1.37477 40.783 1.01648 40.1243 1.07642 39.5862C2.09268 38.57 1.07642 37.1348 1.25556 36.0586L2.27182 35.3414C2.09268 34.0254 3.04967 33.189 2.98973 31.873C3.22881 31.574 3.70697 31.3349 4.06593 31.5141C4.18581 31.574 4.42489 31.6939 4.60403 31.574C5.3812 31.0959 4.36495 30.1988 5.32127 29.9597C5.73949 30.0197 6.27826 29.9597 6.4574 29.5415C6.39814 29.1226 6.69648 28.8243 6.3382 28.5246C6.03918 28.4646 5.8001 28.2855 5.73949 27.9265C5.68022 27.3878 6.09844 26.9696 6.4574 26.7897C6.81636 26.6106 7.41439 26.9096 7.41439 26.3116C7.41439 25.8327 7.29519 25.1748 7.89255 24.9956L10.1049 24.8165C10.8228 24.1585 11.54 23.0823 12.5576 22.8426C12.9759 21.8862 13.813 22.1253 14.5309 21.7664C15.4879 21.5273 15.9061 20.5104 16.983 20.6302C17.4012 20.0322 17.88 19.614 18.5373 19.554C19.136 18.7769 19.4344 17.7599 20.4513 17.2818C21.1093 16.9228 21.1093 17.999 21.7673 17.8192C22.6044 17.5208 22.3054 16.3847 23.0825 16.145C24.1594 16.9228 24.2193 14.8896 25.3548 15.6668L26.9691 16.145C27.5671 16.5039 27.8062 17.5202 28.4642 17.5801C28.644 17.102 27.747 16.8629 28.1658 16.3847C29.0629 16.1456 28.345 14.8297 29.3612 14.7704C30.3782 14.4714 30.4981 16.2655 31.4544 15.4877C31.9925 15.1886 31.7534 14.3515 32.4706 14.4108C33.0087 14.53 33.0687 15.0694 33.5475 15.3078C34.3846 15.427 35.4009 15.188 35.8198 16.145C35.7598 16.743 35.0426 16.9821 34.6237 17.401C34.3846 18.298 34.9234 19.0153 35.5807 19.4342C35.9396 19.4342 36.1188 19.0153 36.2387 18.7769C36.0589 18.2388 35.2817 18.7169 35.2817 18.0589C35.0433 17.1619 35.9989 16.8036 36.5976 16.7437C37.1357 17.2218 38.6907 16.9235 38.1527 18.1788C37.9735 18.657 37.2549 18.5977 37.1357 19.1358C37.2549 19.4948 37.3149 19.9729 37.5539 20.2719C37.853 20.0329 38.5709 19.614 38.9898 20.0921C39.4673 20.6902 40.4242 19.4342 40.6041 20.511C40.7233 21.0491 39.7669 21.2889 40.2451 21.827C40.7832 21.827 40.9623 20.6309 41.6803 21.2896C42.2783 21.7078 41.7995 22.485 41.7995 23.083C42.4574 23.741 42.6366 24.638 42.6965 25.5943C42.6359 26.2516 41.7988 25.7135 41.6796 26.3116ZM40.6627 94.0627C40.3636 94.1234 40.1845 94.0628 40.0646 93.8237C40.0646 93.167 40.8418 93.5267 41.2008 93.3462C41.5597 93.5846 42.2776 93.7051 42.1577 94.2432C41.6196 94.5416 41.2008 93.8836 40.6627 94.0627ZM40.4835 91.7319C40.3037 91.7319 40.1845 91.4928 40.0646 91.3729C40.0646 91.1338 40.3636 91.014 40.5428 90.9534C41.0815 91.014 40.7825 91.612 40.4835 91.7319Z" fill="#E76322"/>
</svg>
