<svg width="32" height="32" viewBox="0 0 32 32" fill="none" xmlns="http://www.w3.org/2000/svg">
<path d="M24.4483 24.452H20.8943V18.8829C20.8943 17.5549 20.8674 15.846 19.0423 15.846C17.1894 15.846 16.9063 17.2911 16.9063 18.7849V24.452H13.3523V13H16.7663V14.5609H16.8123C17.2894 13.6609 18.4494 12.711 20.1823 12.711C23.7834 12.711 24.4494 15.0811 24.4494 18.166L24.4483 24.452ZM9.33834 11.433C8.19434 11.433 7.27534 10.507 7.27534 9.368C7.27534 8.23 8.19534 7.305 9.33834 7.305C10.4783 7.305 11.4023 8.23 11.4023 9.368C11.4023 10.507 10.4773 11.433 9.33834 11.433ZM11.1203 24.452H7.55634V13H11.1203V24.452ZM26.2263 4H5.77234C4.79334 4 4.00134 4.774 4.00134 5.729V26.2711C4.00134 27.2269 4.79334 28 5.77234 28H26.2234C27.2014 28 28.0014 27.2269 28.0014 26.2711V5.729C28.0014 4.774 27.2014 4 26.2234 4H26.2263Z" fill="#706a7b"/>
</svg>
